<svg xmlns="http://www.w3.org/2000/svg" xmlns:xlink="http://www.w3.org/1999/xlink" width="1920" zoomAndPan="magnify" viewBox="0 0 1440 809.999993" height="1080" preserveAspectRatio="xMidYMid meet" version="1.0"><defs><clipPath id="5cc56e4034"><path d="M 273.515625 16 L 1010 16 L 1010 810 L 273.515625 810 Z M 273.515625 16 " clip-rule="nonzero"/></clipPath><clipPath id="6d432ddb32"><path d="M 290.488281 146.953125 L 345.238281 146.953125 L 345.238281 212.953125 L 290.488281 212.953125 Z M 290.488281 146.953125 " clip-rule="nonzero"/></clipPath><clipPath id="5ce05dbef7"><path d="M 395.65625 244.363281 L 450.40625 244.363281 L 450.40625 310.363281 L 395.65625 310.363281 Z M 395.65625 244.363281 " clip-rule="nonzero"/></clipPath><clipPath id="eac9141e3e"><path d="M 548.988281 484.675781 L 603.738281 484.675781 L 603.738281 550.675781 L 548.988281 550.675781 Z M 548.988281 484.675781 " clip-rule="nonzero"/></clipPath></defs><path fill="#1e293b" d="M 282.917969 9.78125 C 285.085938 9.964844 284.726562 7.792969 285.992188 6.527344 C 285.8125 5.984375 285.628906 5.625 285.269531 5.082031 C 285.628906 4.539062 286.171875 4.175781 286.535156 3.632812 C 285.085938 3.273438 284.90625 0.015625 282.738281 0.742188 C 281.472656 1.285156 279.121094 5.625 279.121094 6.890625 C 280.203125 8.335938 280.566406 9.601562 282.917969 9.78125 Z M 282.917969 9.78125 " fill-opacity="1" fill-rule="nonzero"/><path fill="#1e293b" d="M 932.300781 339.988281 C 933.386719 339.265625 934.652344 335.832031 933.746094 334.203125 C 933.023438 334.5625 932.117188 334.925781 931.394531 335.289062 C 930.851562 335.46875 930.492188 335.648438 930.128906 335.832031 C 927.054688 336.191406 931.035156 340.894531 932.300781 339.988281 Z M 932.300781 339.988281 " fill-opacity="1" fill-rule="nonzero"/><path fill="#1e293b" d="M 923.800781 355.902344 C 925.429688 355.542969 926.152344 353.191406 925.609375 351.925781 C 925.066406 351.742188 923.980469 351.382812 923.078125 351.382812 C 922.535156 351.742188 921.992188 352.105469 921.449219 352.46875 C 920.726562 353.007812 920.183594 353.550781 919.460938 354.09375 C 920.183594 354.816406 922.898438 356.082031 923.800781 355.902344 Z M 923.800781 355.902344 " fill-opacity="1" fill-rule="nonzero"/><path fill="#1e293b" d="M 825.789062 336.191406 C 827.957031 336.554688 828.863281 337.097656 830.671875 338.542969 C 832.296875 339.808594 832.476562 340.894531 833.019531 342.703125 C 833.382812 343.785156 835.191406 346.136719 836.820312 345.957031 C 838.808594 345.59375 835.550781 341.4375 835.011719 340.351562 C 833.382812 337.097656 832.117188 334.382812 831.9375 330.585938 C 831.9375 328.957031 832.117188 325.882812 829.945312 325.882812 C 828.863281 325.882812 827.234375 327.511719 826.691406 328.777344 C 826.148438 328.957031 825.789062 329.320312 825.246094 329.5 C 825.0625 330.40625 823.617188 331.488281 823.617188 332.9375 C 823.617188 334.746094 823.980469 335.832031 825.789062 336.191406 Z M 825.789062 336.191406 " fill-opacity="1" fill-rule="nonzero"/><path fill="#1e293b" d="M 812.226562 359.882812 C 812.042969 361.148438 812.226562 362.59375 812.042969 363.859375 C 811.863281 364.945312 810.957031 366.933594 811.683594 367.296875 C 812.40625 367.65625 814.757812 366.210938 815.660156 366.03125 C 817.46875 365.304688 822.171875 364.765625 822.894531 363.136719 C 823.796875 361.328125 821.808594 356.808594 820.722656 355.359375 C 819.277344 353.734375 816.925781 354.09375 816.382812 355.722656 C 815.300781 356.265625 814.394531 356.808594 813.308594 357.351562 C 813.128906 358.074219 812.40625 358.976562 812.226562 359.882812 Z M 812.226562 359.882812 " fill-opacity="1" fill-rule="nonzero"/><path fill="#1e293b" d="M 834.648438 349.933594 C 833.382812 349.03125 831.210938 347.042969 829.945312 345.414062 C 829.402344 344.691406 829.042969 343.605469 827.957031 343.785156 C 826.871094 343.96875 826.328125 345.59375 826.328125 346.5 C 826.148438 348.128906 827.054688 349.933594 827.234375 351.5625 C 827.414062 352.828125 827.054688 354.09375 827.414062 355.542969 C 827.777344 357.710938 829.585938 360.242188 832.117188 360.0625 C 835.011719 359.882812 837 355.902344 839.167969 354.277344 C 838.265625 351.925781 837.359375 351.5625 835.734375 351.203125 C 835.191406 350.839844 835.011719 350.476562 834.648438 349.933594 Z M 834.648438 349.933594 " fill-opacity="1" fill-rule="nonzero"/><path fill="#1e293b" d="M 856.347656 352.105469 C 857.433594 352.828125 858.519531 353.914062 860.144531 353.914062 C 861.773438 353.914062 863.582031 353.191406 865.210938 353.007812 C 865.933594 352.828125 867.019531 352.828125 867.742188 352.648438 C 867.378906 351.5625 867.019531 350.117188 866.835938 349.394531 C 866.835938 349.394531 866.835938 349.394531 866.835938 349.210938 C 865.210938 346.859375 864.847656 345.59375 861.773438 344.871094 C 860.328125 344.511719 859.0625 344.148438 857.796875 344.691406 C 856.167969 345.414062 855.804688 346.136719 853.996094 346.320312 C 848.574219 346.859375 854.539062 350.839844 856.347656 352.105469 Z M 856.347656 352.105469 " fill-opacity="1" fill-rule="nonzero"/><path fill="#1e293b" d="M 861.050781 338.179688 C 862.316406 339.085938 863.761719 339.445312 865.210938 340.171875 C 866.65625 340.894531 866.476562 341.617188 867.742188 340.710938 C 868.644531 340.171875 869.1875 338.542969 870.09375 338.179688 C 872.441406 337.277344 875.15625 339.808594 875.699219 341.617188 C 876.421875 343.605469 878.230469 344.511719 880.21875 345.054688 C 880.582031 346.136719 880.941406 347.222656 881.304688 348.128906 C 881.304688 348.128906 881.304688 347.945312 881.304688 347.945312 C 881.847656 349.210938 883.113281 349.394531 884.015625 350.296875 C 885.464844 351.5625 885.464844 353.007812 885.464844 354.816406 C 885.464844 356.988281 886.546875 357.53125 887.996094 359.15625 C 888.539062 359.882812 890.886719 363.136719 891.792969 362.957031 C 893.601562 362.59375 891.972656 351.925781 891.972656 350.296875 C 891.972656 349.210938 891.972656 348.128906 891.972656 347.042969 C 891.972656 345.777344 892.335938 345.777344 891.25 345.054688 C 889.804688 344.148438 887.453125 343.785156 885.824219 342.703125 C 883.65625 341.4375 883.113281 340.894531 882.207031 338.542969 C 881.847656 337.097656 880.761719 336.011719 879.859375 334.925781 C 880.039062 334.382812 880.21875 333.839844 880.21875 333.117188 C 882.390625 330.40625 884.015625 326.609375 879.496094 325.523438 C 878.050781 325.160156 875.515625 324.617188 874.070312 324.800781 C 871.902344 324.980469 871.175781 328.054688 869.730469 329.5 C 868.285156 331.128906 866.113281 331.308594 864.488281 332.757812 C 863.945312 333.296875 863.761719 333.839844 863.039062 334.203125 C 862.136719 334.746094 860.871094 334.925781 859.964844 335.648438 C 858.878906 336.914062 859.421875 337.097656 861.050781 338.179688 Z M 861.050781 338.179688 " fill-opacity="1" fill-rule="nonzero"/><path fill="#1e293b" d="M 896.496094 337.277344 C 898.121094 336.371094 900.835938 335.648438 902.644531 336.554688 C 903.183594 336.734375 903.726562 337.820312 904.453125 338 C 904.632812 338 904.632812 338.179688 904.8125 338.179688 C 904.269531 339.085938 903.546875 339.988281 903.003906 340.710938 C 902.824219 340.894531 902.824219 341.074219 902.644531 341.074219 C 903.003906 342.339844 904.269531 342.882812 904.632812 344.148438 C 905.175781 345.957031 903.726562 346.5 905.898438 347.585938 C 907.527344 348.488281 909.695312 348.851562 911.324219 349.574219 C 913.3125 350.296875 914.035156 350.839844 914.941406 348.667969 C 915.480469 347.222656 916.386719 345.414062 916.75 343.96875 C 917.109375 342.160156 916.566406 340.53125 917.472656 338.722656 C 918.195312 337.636719 919.460938 336.734375 919.460938 335.46875 C 919.640625 333.480469 918.015625 331.308594 917.472656 329.320312 C 916.929688 327.875 917.109375 326.066406 915.664062 324.980469 C 914.757812 324.257812 913.675781 324.257812 912.769531 324.4375 C 912.40625 323.714844 912.046875 322.992188 911.503906 322.265625 C 908.972656 323.171875 906.257812 324.257812 903.726562 325.703125 C 900.652344 327.332031 897.761719 324.800781 894.6875 325.882812 C 893.058594 326.425781 892.335938 327.691406 891.25 328.957031 C 890.347656 329.863281 888.355469 330.949219 888.355469 332.214844 C 888.355469 333.660156 890.164062 336.371094 890.707031 337.636719 C 892.335938 340.53125 894.144531 338.542969 896.496094 337.277344 Z M 896.496094 337.277344 " fill-opacity="1" fill-rule="nonzero"/><path fill="#1e293b" d="M 907.164062 392.613281 C 908.25 393.878906 909.332031 394.78125 910.601562 395.867188 C 912.949219 397.855469 915.121094 399.304688 918.195312 399.847656 C 919.28125 400.027344 921.269531 400.75 920.90625 399.121094 C 920.546875 397.675781 917.472656 395.324219 916.566406 394.058594 C 913.855469 390.804688 911.503906 388.09375 908.429688 385.378906 C 907.527344 384.65625 905.898438 382.304688 904.453125 383.75 C 903.910156 384.292969 904.269531 385.558594 904.992188 386.464844 C 904.632812 387.1875 904.453125 388.09375 904.269531 388.996094 C 905.355469 389.359375 906.257812 391.527344 907.164062 392.613281 Z M 907.164062 392.613281 " fill-opacity="1" fill-rule="nonzero"/><path fill="#1e293b" d="M 918.195312 408.707031 C 917.652344 408.527344 916.75 408.164062 916.023438 407.804688 C 916.023438 407.621094 916.023438 407.441406 915.84375 407.261719 C 914.578125 405.996094 911.503906 400.207031 909.332031 400.207031 C 907.886719 400.207031 906.078125 403.101562 905.355469 404.367188 C 904.089844 406.71875 904.8125 409.613281 903.910156 412.144531 C 903.183594 414.132812 901.558594 416.84375 900.109375 418.652344 C 900.652344 420.28125 904.269531 421.367188 905.898438 421.726562 C 908.429688 422.269531 909.152344 419.917969 910.960938 418.472656 C 913.132812 416.84375 914.941406 419.015625 917.472656 418.835938 C 918.738281 418.835938 920.183594 418.109375 921.449219 417.75 C 922.171875 418.652344 923.078125 419.558594 923.800781 420.460938 C 925.429688 421.183594 927.417969 423.175781 929.226562 424.257812 C 930.3125 424.984375 931.578125 425.34375 932.660156 426.066406 C 933.746094 426.789062 934.46875 427.695312 935.734375 427.332031 C 935.191406 426.066406 934.832031 424.800781 934.46875 423.714844 C 936.640625 423.898438 938.992188 423.714844 941.160156 423.535156 C 939.535156 420.28125 935.375 418.835938 932.84375 416.300781 C 931.9375 415.398438 930.3125 412.144531 929.042969 411.78125 C 927.238281 411.238281 927.777344 414.492188 927.417969 415.578125 C 926.511719 415.761719 923.257812 412.867188 922.355469 412.144531 C 921.269531 411.238281 920.003906 409.613281 918.195312 408.707031 Z M 918.195312 408.707031 " fill-opacity="1" fill-rule="nonzero"/><path fill="#1e293b" d="M 908.609375 426.789062 C 907.707031 426.609375 907.164062 426.972656 906.621094 427.515625 C 905.535156 427.515625 904.453125 427.515625 903.367188 427.515625 C 901.558594 428.960938 899.207031 430.589844 896.855469 431.492188 C 895.230469 432.214844 894.6875 432.757812 894.144531 430.769531 C 893.78125 429.324219 894.503906 428.054688 892.878906 428.78125 C 891.613281 429.324219 890.707031 431.3125 890.164062 432.398438 C 889.804688 433.121094 888.175781 435.289062 888.175781 436.195312 C 888.175781 437.640625 890.347656 438.726562 891.429688 439.628906 C 892.878906 440.894531 893.421875 442.523438 894.144531 444.511719 C 894.6875 445.777344 895.589844 448.308594 897.035156 447.949219 C 898.484375 447.585938 899.929688 444.875 901.015625 443.246094 C 901.917969 443.96875 902.824219 444.695312 903.183594 445.054688 C 904.632812 446.320312 906.078125 447.769531 907.707031 445.960938 C 908.792969 444.511719 909.695312 441.980469 910.238281 440.535156 C 910.601562 439.628906 910.78125 438.726562 911.324219 437.820312 C 912.046875 437.097656 912.949219 436.917969 912.949219 436.011719 C 913.3125 434.386719 911.324219 430.949219 910.78125 429.324219 C 910.238281 427.875 909.875 426.972656 908.609375 426.789062 Z M 908.609375 426.789062 " fill-opacity="1" fill-rule="nonzero"/><path fill="#1e293b" d="M 1067.203125 603.828125 C 1066.300781 603.105469 1065.214844 601.296875 1064.128906 601.117188 C 1062.863281 600.9375 1057.257812 602.203125 1056.894531 604.011719 C 1056.355469 605.820312 1058.160156 605.636719 1056.171875 606.722656 C 1055.269531 607.265625 1053.820312 607.988281 1052.738281 607.808594 C 1052.195312 607.265625 1051.832031 606.542969 1051.109375 606.179688 C 1050.566406 605.636719 1049.480469 604.554688 1048.578125 603.828125 C 1051.289062 598.40625 1048.9375 590.808594 1055.085938 586.832031 C 1056.535156 585.925781 1058.523438 585.023438 1060.152344 584.300781 C 1061.234375 583.757812 1062.683594 583.574219 1063.769531 582.851562 C 1066.300781 581.042969 1064.128906 579.960938 1062.140625 579.777344 C 1056.894531 578.875 1051.289062 579.054688 1046.40625 577.425781 C 1041.164062 575.800781 1035.375 575.257812 1031.035156 572.003906 C 1027.058594 568.929688 1023.804688 564.226562 1021.089844 559.886719 C 1021.269531 559.164062 1021.453125 558.441406 1021.453125 557.714844 C 1021.453125 555.90625 1020.910156 553.917969 1020.367188 552.292969 C 1019.101562 547.589844 1018.738281 544.875 1020.910156 540.355469 C 1022.71875 536.738281 1020.1875 536.195312 1018.195312 533.304688 C 1015.847656 529.6875 1013.316406 526.25 1010.78125 522.816406 C 1008.433594 519.921875 1007.707031 516.304688 1006.082031 513.230469 C 1004.632812 510.519531 1002.644531 510.699219 999.933594 510.878906 C 997.21875 511.0625 995.773438 509.976562 993.242188 509.253906 C 990.167969 508.167969 989.261719 509.792969 989.988281 512.507812 C 991.070312 517.570312 991.796875 522.996094 992.335938 528.238281 C 991.976562 528.058594 991.796875 527.699219 991.433594 527.515625 C 989.445312 527.335938 986.1875 524.804688 984.5625 523.539062 C 983.476562 522.816406 982.390625 522.632812 983.113281 521.1875 C 983.65625 520.464844 985.105469 519.558594 985.828125 519.199219 C 984.921875 517.210938 983.296875 514.496094 981.847656 512.867188 C 979.5 510.15625 977.507812 510.335938 974.433594 511.785156 C 971.359375 513.230469 967.742188 515.039062 965.03125 517.027344 C 963.042969 518.292969 964.667969 519.742188 965.574219 521.730469 C 966.296875 522.996094 967.742188 525.527344 967.019531 526.972656 C 966.476562 528.238281 963.402344 529.867188 962.320312 530.589844 C 960.871094 531.496094 959.425781 532.21875 957.980469 532.941406 C 955.628906 534.027344 954 535.652344 951.832031 536.921875 C 950.382812 537.824219 949.117188 538.003906 948.394531 539.632812 C 947.671875 541.261719 947.851562 544.152344 949.296875 545.417969 C 951.105469 547.046875 954.722656 545.058594 957.253906 545.960938 C 959.425781 546.683594 960.148438 550.300781 962.136719 550.300781 C 963.042969 550.300781 964.488281 549.21875 965.210938 548.855469 C 966.117188 548.492188 967.203125 548.132812 968.285156 547.769531 C 969.914062 547.226562 971.542969 546.867188 973.167969 546.503906 C 975.519531 546.144531 977.507812 547.589844 979.136719 549.21875 C 980.222656 550.300781 980.039062 550.484375 981.667969 550.300781 C 983.476562 550.121094 984.921875 549.578125 986.730469 549.578125 C 991.613281 549.757812 992.335938 552.652344 993.242188 557.171875 C 993.785156 560.609375 993.0625 564.40625 995.59375 567.480469 C 997.039062 569.289062 1000.113281 570.554688 1002.101562 572.003906 C 1003.007812 572.542969 1003.910156 573.269531 1004.816406 573.992188 C 1004.632812 574.351562 1004.453125 574.714844 1004.09375 574.894531 C 1003.007812 576.34375 1000.65625 578.511719 1000.292969 580.320312 C 999.933594 581.585938 1000.292969 583.035156 1000.65625 584.480469 C 1001.378906 588.640625 1003.007812 591.53125 1006.082031 594.246094 C 1008.433594 596.414062 1011.507812 596.234375 1014.21875 598.222656 C 1017.113281 600.394531 1019.644531 598.765625 1022.71875 600.03125 C 1025.25 601.117188 1027.601562 603.46875 1029.769531 605.277344 C 1031.578125 606.902344 1033.929688 606.902344 1035.738281 608.351562 C 1036.824219 609.253906 1037.910156 610.519531 1038.8125 611.605469 C 1039.714844 612.691406 1040.441406 614.679688 1041.523438 615.582031 C 1042.972656 616.667969 1044.960938 615.042969 1046.769531 614.859375 C 1050.746094 614.5 1054.003906 616.667969 1056.894531 612.507812 C 1058.160156 610.703125 1057.980469 609.253906 1060.511719 609.796875 C 1062.503906 610.160156 1064.492188 611.605469 1066.480469 612.328125 C 1067.746094 612.871094 1067.382812 613.050781 1068.46875 612.148438 C 1069.191406 611.605469 1069.554688 610.882812 1069.917969 610.160156 C 1070.277344 609.253906 1071.542969 606.902344 1071.183594 606 C 1069.917969 605.457031 1067.925781 604.550781 1067.203125 603.828125 Z M 1005.539062 572.183594 Z M 1005.539062 572.183594 " fill-opacity="1" fill-rule="nonzero"/><path fill="#1e293b" d="M 1082.574219 595.148438 C 1081.488281 594.789062 1080.765625 595.328125 1080.40625 596.414062 C 1079.320312 596.597656 1078.414062 596.957031 1077.332031 597.136719 C 1078.234375 598.585938 1078.054688 599.671875 1080.042969 600.753906 C 1081.488281 601.476562 1083.117188 602.382812 1083.839844 600.210938 C 1084.382812 599.128906 1083.839844 595.691406 1082.574219 595.148438 Z M 1082.574219 595.148438 " fill-opacity="1" fill-rule="nonzero"/><path fill="#1e293b" d="M 1108.976562 596.777344 C 1107.53125 596.054688 1106.265625 596.597656 1105.179688 597.5 C 1103.734375 598.222656 1102.46875 599.128906 1101.019531 600.03125 C 1101.019531 600.03125 1101.019531 600.03125 1101.199219 600.03125 C 1099.03125 601.839844 1101.382812 603.648438 1102.648438 605.09375 C 1103.734375 606.542969 1105.359375 610.339844 1107.167969 610.699219 C 1109.519531 611.242188 1112.414062 598.765625 1108.976562 596.777344 Z M 1108.976562 596.777344 " fill-opacity="1" fill-rule="nonzero"/><path fill="#1e293b" d="M 1157.621094 591.714844 C 1155.269531 589.363281 1151.472656 585.925781 1148.398438 584.660156 C 1147.496094 584.300781 1144.78125 584.660156 1142.433594 585.203125 C 1141.527344 584.300781 1140.441406 583.394531 1139.539062 582.492188 C 1139.71875 582.671875 1139.71875 582.671875 1139.539062 582.851562 C 1137.007812 581.585938 1132.667969 579.417969 1130.316406 581.40625 C 1128.867188 582.671875 1128.867188 585.566406 1126.878906 586.289062 C 1125.253906 587.011719 1123.804688 585.382812 1121.996094 586.289062 C 1119.828125 587.375 1120.007812 589.542969 1119.644531 591.714844 C 1119.285156 594.425781 1118.019531 596.777344 1117.113281 599.488281 C 1116.390625 601.660156 1115.125 604.191406 1114.945312 606.359375 C 1114.582031 609.074219 1116.390625 610.519531 1117.65625 612.871094 C 1118.921875 615.582031 1118.921875 617.390625 1118.742188 619.925781 C 1118.5625 622.09375 1117.839844 625.167969 1118.199219 627.699219 C 1121.273438 628.242188 1123.988281 627.339844 1126.519531 625.710938 C 1127.785156 624.988281 1128.507812 624.082031 1129.953125 623.722656 C 1130.675781 623.539062 1133.207031 623.722656 1133.75 623.359375 C 1135.558594 621.730469 1132.847656 619.5625 1133.027344 617.390625 C 1133.027344 616.488281 1133.390625 615.402344 1133.933594 614.316406 C 1135.015625 615.765625 1136.101562 617.210938 1137.1875 618.476562 C 1142.070312 617.390625 1141.347656 626.976562 1143.335938 629.148438 C 1145.503906 631.679688 1148.398438 628.242188 1150.929688 627.699219 C 1154.003906 626.976562 1156.898438 630.773438 1157.984375 627.339844 C 1158.707031 624.625 1157.261719 620.828125 1157.441406 617.933594 C 1157.621094 614.859375 1159.792969 612.691406 1161.238281 609.976562 C 1162.503906 607.808594 1165.398438 604.371094 1165.941406 602.019531 C 1166.484375 598.585938 1159.972656 594.246094 1157.621094 591.714844 Z M 1157.621094 591.714844 " fill-opacity="1" fill-rule="nonzero"/><path fill="#1e293b" d="M 753.453125 764.410156 C 752.910156 763.6875 752.550781 762.964844 752.007812 762.421875 C 750.742188 761.699219 748.75 761.699219 747.125 760.796875 C 746.402344 760.433594 745.496094 759.347656 744.773438 759.527344 C 743.328125 759.527344 743.328125 761.15625 742.601562 762.0625 C 741.878906 762.964844 740.792969 763.328125 741.15625 764.410156 C 741.519531 765.496094 744.050781 766.761719 745.132812 767.304688 C 747.847656 768.933594 749.476562 770.742188 751.824219 772.910156 C 753.273438 774.359375 753.816406 773.632812 755.804688 773.453125 C 757.25 773.273438 758.878906 773.453125 760.324219 773.816406 C 760.867188 771.644531 761.589844 767.847656 759.78125 766.582031 C 757.613281 765.316406 755.625 764.953125 753.453125 764.410156 Z M 753.453125 764.410156 " fill-opacity="1" fill-rule="nonzero"/><path fill="#1e293b" d="M 628.496094 622.636719 C 628.316406 621.914062 628.316406 621.191406 628.132812 620.648438 C 630.121094 620.285156 631.390625 620.285156 631.929688 617.574219 C 632.292969 614.679688 631.207031 612.871094 629.398438 610.699219 C 625.601562 605.820312 620.71875 601.660156 616.921875 596.957031 C 615.292969 594.96875 614.75 592.4375 613.847656 590.265625 C 612.945312 588.277344 612.039062 587.191406 610.230469 585.925781 C 608.601562 584.839844 607.519531 583.9375 606.433594 582.308594 C 605.527344 581.042969 604.988281 579.597656 604.082031 578.332031 C 602.816406 576.703125 599.921875 573.269531 599.199219 576.34375 C 599.378906 577.066406 599.378906 577.789062 599.5625 578.511719 C 599.019531 579.597656 598.476562 580.863281 598.113281 582.128906 C 599.199219 583.03125 600.285156 587.191406 600.828125 589 C 601.550781 591.171875 601.371094 593.339844 601.730469 595.511719 C 602.09375 598.042969 602.09375 600.210938 605.347656 599.308594 C 608.0625 598.402344 609.328125 596.957031 611.316406 599.671875 C 613.304688 602.5625 613.304688 603.46875 612.582031 606.722656 C 612.21875 608.167969 611.859375 609.796875 612.402344 611.0625 C 613.304688 612.871094 615.65625 614.859375 617.285156 616.308594 C 618.730469 617.574219 619.273438 617.753906 620.71875 617.574219 C 622.890625 617.390625 622.707031 618.296875 622.890625 620.285156 C 623.070312 621.914062 622.347656 624.265625 623.070312 625.890625 C 623.613281 627.699219 626.144531 629.328125 627.410156 630.59375 C 628.316406 631.496094 632.113281 635.476562 633.738281 634.570312 C 635.546875 633.488281 633.378906 630.59375 632.65625 629.871094 C 630.847656 628.0625 629.039062 625.167969 628.496094 622.636719 Z M 628.496094 622.636719 " fill-opacity="1" fill-rule="nonzero"/><path fill="#1e293b" d="M 583.105469 555.90625 C 581.476562 554.097656 580.753906 552.832031 580.574219 550.484375 C 580.394531 547.949219 579.128906 546.144531 576.777344 545.058594 C 575.871094 544.515625 574.96875 544.335938 574.0625 544.695312 C 573.519531 544.875 572.980469 545.238281 572.4375 545.601562 C 571.171875 545.601562 569.90625 545.78125 568.636719 545.960938 C 568.820312 545.960938 568.820312 546.144531 569 546.324219 C 568.636719 547.769531 568.457031 549.578125 568.457031 551.207031 C 568.457031 553.015625 568.097656 555.183594 569.363281 556.632812 C 570.628906 558.078125 572.253906 559.34375 573.519531 560.972656 C 574.785156 562.78125 576.777344 562.78125 578.945312 563.320312 C 581.839844 563.863281 583.828125 564.589844 586.359375 566.035156 C 589.253906 567.84375 589.253906 565.492188 587.988281 563.140625 C 586.722656 560.429688 585.09375 558.078125 583.105469 555.90625 Z M 583.105469 555.90625 " fill-opacity="1" fill-rule="nonzero"/><path fill="#1e293b" d="M 544.042969 508.347656 C 543.683594 507.984375 543.320312 507.625 542.960938 507.082031 C 543.683594 505.636719 544.769531 504.007812 544.769531 502.921875 C 544.585938 500.933594 541.511719 498.222656 540.066406 496.957031 C 537.894531 494.785156 536.628906 493.339844 535.726562 490.265625 C 534.820312 486.464844 533.195312 483.210938 531.023438 480.136719 C 529.941406 478.691406 528.3125 478.148438 527.769531 476.339844 C 527.226562 474.167969 528.3125 471.820312 527.226562 469.828125 C 525.058594 465.851562 521.621094 468.925781 518.546875 469.828125 C 516.015625 470.554688 512.035156 468.203125 510.046875 470.191406 C 508.601562 471.636719 508.78125 475.074219 508.78125 476.882812 C 508.78125 478.328125 509.144531 479.957031 508.601562 481.222656 C 508.238281 482.308594 507.152344 482.851562 506.25 483.574219 C 504.621094 485.382812 502.453125 487.371094 503.898438 489.902344 C 504.984375 491.710938 506.613281 493.519531 507.878906 495.148438 C 508.960938 496.59375 509.6875 498.945312 511.132812 500.03125 C 511.675781 500.390625 512.398438 501.113281 513.121094 501.65625 C 513.121094 502.5625 513.121094 503.464844 513.121094 503.828125 C 513.484375 505.09375 513.484375 505.996094 514.207031 506.902344 C 515.292969 508.527344 516.917969 509.433594 518.183594 511.058594 C 519.8125 513.230469 520.535156 516.125 522.164062 518.113281 C 524.332031 520.28125 528.492188 521.007812 531.023438 522.996094 C 532.832031 524.261719 534.460938 525.527344 536.628906 526.429688 C 537.535156 526.792969 539.703125 528.058594 540.789062 527.878906 C 542.777344 527.878906 543.503906 524.984375 545.128906 524.261719 C 546.757812 523.71875 548.386719 525.707031 549.832031 525.527344 C 551.097656 521.910156 552.90625 518.476562 550.554688 515.039062 C 548.566406 512.6875 546.035156 510.519531 544.042969 508.347656 Z M 544.042969 508.347656 " fill-opacity="1" fill-rule="nonzero"/><path fill="#1e293b" d="M 520.898438 396.773438 C 520.355469 395.144531 519.449219 393.699219 518.183594 392.613281 C 515.472656 392.972656 512.21875 393.15625 509.6875 392.433594 C 508.058594 392.070312 506.792969 392.070312 505.164062 392.25 C 503.898438 392.433594 501.730469 392.070312 500.464844 392.613281 C 499.199219 393.15625 498.65625 395.324219 498.113281 396.410156 C 498.835938 397.496094 499.738281 398.941406 501.1875 399.304688 C 504.078125 396.589844 506.972656 398.941406 510.226562 399.664062 C 512.761719 400.207031 515.292969 398.761719 517.644531 397.675781 C 518.183594 398.039062 518.910156 398.21875 519.449219 398.582031 C 521.257812 400.027344 521.441406 397.855469 520.898438 396.773438 Z M 520.898438 396.773438 " fill-opacity="1" fill-rule="nonzero"/><path fill="#1e293b" d="M 497.75 421.726562 C 495.941406 419.917969 495.21875 417.75 495.582031 415.398438 C 495.761719 412.503906 495.398438 412.503906 493.953125 410.152344 C 493.050781 408.707031 492.507812 406.898438 491.421875 405.453125 C 488.890625 402.195312 486.359375 403.464844 484.007812 405.996094 C 484.910156 407.078125 486.359375 407.441406 487.261719 408.527344 C 488.347656 409.792969 488.347656 411.238281 488.710938 412.683594 C 489.070312 414.132812 489.433594 415.21875 490.335938 416.484375 C 491.058594 417.566406 492.507812 418.292969 492.6875 419.738281 C 491.601562 420.640625 490.335938 421.726562 491.058594 423.355469 C 491.242188 423.898438 491.785156 425.34375 492.144531 426.429688 C 491.601562 427.332031 491.242188 428.417969 490.878906 429.683594 C 490.335938 432.035156 489.25 434.566406 487.804688 436.554688 C 486.539062 438.183594 483.828125 439.449219 485.09375 441.257812 C 485.636719 441.980469 486.902344 442.703125 487.625 443.425781 C 488.347656 444.152344 489.070312 445.054688 489.976562 445.597656 C 491.242188 442.34375 493.230469 444.875 495.761719 443.96875 C 497.390625 443.425781 496.847656 439.269531 496.847656 437.460938 C 496.847656 435.289062 496.664062 433.480469 498.292969 431.671875 C 499.738281 430.046875 502.632812 428.417969 501.730469 425.707031 C 501.1875 424.078125 498.835938 422.8125 497.75 421.726562 Z M 497.75 421.726562 " fill-opacity="1" fill-rule="nonzero"/><path fill="#1e293b" d="M 450.191406 328.777344 C 448.019531 327.875 446.210938 326.246094 444.222656 324.980469 C 442.597656 324.074219 441.328125 323.351562 440.0625 321.726562 C 438.796875 320.277344 438.074219 318.46875 436.808594 317.203125 C 436.085938 316.480469 435.363281 316.117188 434.640625 315.578125 C 434.457031 315.035156 434.277344 314.671875 434.097656 314.492188 C 433.375 313.226562 432.648438 311.960938 431.925781 310.695312 C 430.480469 308.523438 429.394531 306.894531 427.226562 305.269531 C 425.234375 303.820312 423.425781 301.652344 421.257812 300.386719 C 418.363281 298.757812 418.726562 301.472656 417.460938 303.097656 C 416.375 304.363281 414.203125 304.726562 412.757812 305.089844 C 412.035156 305.269531 409.320312 306.355469 408.417969 306.894531 C 407.875 306.894531 407.511719 306.714844 406.972656 306.714844 C 405.523438 305.992188 402.269531 306.714844 400.824219 307.800781 C 401.183594 308.886719 402.8125 309.429688 403.714844 309.96875 C 404.980469 310.695312 406.066406 311.777344 407.332031 312.683594 C 410.046875 314.851562 411.671875 317.746094 413.480469 320.460938 C 415.652344 323.894531 419.085938 326.066406 420.714844 329.863281 C 421.4375 331.488281 421.617188 333.117188 421.617188 334.925781 C 421.617188 336.914062 421.078125 338.363281 423.425781 339.085938 C 425.234375 339.628906 427.585938 339.628906 429.03125 340.53125 C 430.480469 341.4375 431.023438 343.246094 432.289062 344.511719 C 433.554688 345.777344 436.265625 346.679688 436.988281 348.128906 C 437.53125 349.210938 436.988281 351.5625 437.171875 352.828125 C 437.351562 354.277344 438.074219 355.542969 438.4375 356.988281 C 438.796875 358.796875 439.160156 362.230469 440.246094 363.679688 C 441.148438 364.945312 443.320312 364.402344 444.765625 364.222656 C 447.296875 363.859375 449.285156 364.222656 451.820312 364.222656 C 456.882812 364.402344 455.433594 359.699219 455.433594 356.082031 C 455.253906 351.5625 454.894531 346.859375 455.074219 342.339844 C 455.253906 339.445312 459.414062 339.265625 459.050781 336.734375 C 458.691406 333.117188 453.085938 330.042969 450.191406 328.777344 Z M 450.191406 328.777344 " fill-opacity="1" fill-rule="nonzero"/><path fill="#1e293b" d="M 349.105469 230.222656 C 345.488281 227.691406 342.773438 226.785156 339.339844 226.96875 C 337.53125 225.519531 335.902344 224.074219 335.539062 223.894531 C 335 223.894531 334.273438 223.53125 333.550781 223.53125 C 333.550781 223.53125 333.550781 223.351562 333.371094 223.351562 C 334.273438 221.179688 335.902344 217.925781 334.636719 216.117188 C 332.828125 213.402344 327.402344 213.042969 324.691406 211.777344 C 319.445312 209.246094 314.746094 199.480469 311.851562 208.882812 C 310.945312 211.597656 311.128906 210.871094 309.140625 212.679688 C 307.148438 214.488281 306.425781 213.222656 308.777344 216.476562 C 310.765625 219.191406 313.296875 225.160156 316.554688 226.425781 C 320.894531 228.050781 325.414062 224.433594 329.574219 226.785156 C 333.371094 228.957031 335.539062 233.296875 339.15625 235.464844 C 341.148438 236.730469 344.039062 237.09375 346.210938 238.179688 C 348.378906 239.265625 350.1875 241.253906 352.359375 242.339844 C 355.070312 243.964844 361.402344 243.242188 364.292969 240.890625 C 362.125 235.285156 353.445312 233.296875 349.105469 230.222656 Z M 349.105469 230.222656 " fill-opacity="1" fill-rule="nonzero"/><g clip-path="url(#5cc56e4034)"><path fill="#1e293b" d="M 1007.167969 609.617188 C 1006.804688 608.710938 1006.441406 606.902344 1005.898438 606.179688 C 1005.359375 605.636719 1003.730469 605.277344 1003.007812 604.914062 C 1001.378906 604.191406 999.933594 603.828125 998.304688 603.46875 C 997.402344 603.285156 994.6875 603.285156 993.964844 602.746094 C 993.0625 602.019531 992.699219 599.851562 992.519531 598.765625 C 991.976562 596.597656 991.796875 594.246094 991.613281 592.074219 C 991.433594 589.90625 991.613281 587.011719 989.804688 585.746094 C 988.179688 584.480469 985.648438 585.023438 983.839844 583.757812 C 981.847656 582.492188 982.03125 579.957031 981.847656 577.789062 C 981.667969 574.535156 982.03125 571.460938 982.03125 568.203125 C 981.847656 565.128906 981.304688 565.492188 978.59375 565.128906 C 976.0625 564.769531 973.351562 564.589844 970.816406 564.40625 C 965.394531 563.863281 960.148438 564.226562 954.90625 562.960938 C 951.648438 562.238281 949.660156 562.597656 946.949219 564.40625 C 945.683594 565.128906 944.234375 566.214844 942.789062 565.671875 C 941.703125 565.3125 941.160156 563.863281 940.257812 563.140625 C 938.269531 561.152344 936.640625 561.875 935.375 563.503906 C 933.746094 560.609375 931.578125 557.898438 929.769531 560.429688 C 928.863281 561.695312 929.046875 563.320312 927.777344 564.40625 C 926.695312 565.3125 924.703125 565.671875 923.800781 566.757812 C 922.171875 568.929688 923.800781 573.269531 923.4375 575.980469 C 922.898438 580.140625 920.183594 575.4375 919.640625 573.628906 C 918.917969 571.277344 918.738281 568.566406 918.015625 566.394531 C 918.015625 565.671875 917.832031 565.128906 917.832031 564.40625 C 918.917969 563.320312 920.003906 562.417969 921.269531 561.515625 C 921.992188 560.972656 922.898438 560.609375 923.4375 559.886719 C 924.523438 558.621094 925.246094 556.632812 925.972656 555.003906 C 926.875 553.195312 927.597656 551.207031 928.503906 549.578125 C 929.226562 548.3125 931.214844 546.683594 931.214844 545.058594 C 931.214844 543.070312 927.960938 539.996094 926.511719 538.726562 C 924.886719 537.28125 923.078125 536.195312 920.90625 536.558594 C 919.824219 536.738281 917.289062 538.1875 916.207031 537.824219 C 914.941406 537.28125 915.480469 534.386719 914.578125 533.304688 C 913.855469 532.398438 912.40625 532.039062 911.324219 531.3125 C 910.058594 530.410156 909.875 529.503906 908.429688 530.589844 C 907.527344 531.3125 906.621094 532.941406 905.898438 533.847656 C 905.898438 533.847656 905.71875 534.027344 905.71875 534.027344 C 904.632812 531.855469 903.003906 528.964844 903.546875 527.515625 C 904.089844 526.070312 906.621094 525.347656 907.886719 525.164062 C 908.25 523.539062 906.800781 519.378906 906.078125 517.75 C 905.535156 516.484375 904.8125 515.941406 903.726562 515.21875 C 903.367188 514.859375 902.824219 514.675781 902.28125 514.496094 C 902.644531 513.230469 903.183594 511.964844 903.183594 511.242188 C 903.546875 507.445312 903.003906 503.644531 901.558594 500.210938 C 900.652344 498.402344 899.75 496.773438 899.027344 494.964844 C 898.484375 493.339844 898.664062 491.890625 898.664062 490.265625 C 898.484375 486.105469 898.304688 481.042969 896.675781 477.242188 C 895.769531 475.074219 895.230469 475.074219 892.878906 474.710938 C 891.070312 474.351562 889.441406 474.53125 887.632812 474.894531 C 882.207031 476.160156 878.589844 474.351562 873.710938 472.179688 C 870.453125 470.734375 867.378906 469.828125 864.125 471.820312 C 862.496094 472.722656 862.136719 472.902344 860.507812 472.179688 C 857.976562 471.09375 855.445312 470.011719 853.09375 468.925781 C 850.921875 467.839844 848.753906 466.753906 846.582031 465.671875 C 844.59375 464.765625 842.425781 464.222656 840.796875 462.777344 C 838.265625 460.96875 836.636719 458.617188 834.828125 456.085938 C 833.203125 454.097656 830.488281 450.84375 827.957031 450.480469 C 826.691406 450.300781 825.425781 450.480469 823.980469 450.117188 C 823.617188 449.9375 823.074219 449.757812 822.714844 449.757812 C 823.617188 448.851562 824.882812 447.769531 825.0625 447.769531 C 826.148438 446.5 826.691406 445.417969 828.5 444.695312 C 830.308594 443.789062 833.5625 443.96875 832.296875 441.621094 C 831.210938 439.628906 829.945312 438.726562 832.660156 436.917969 C 835.191406 435.289062 838.265625 434.929688 840.976562 433.480469 C 843.328125 432.035156 845.679688 430.589844 848.210938 429.503906 C 849.65625 428.960938 854.539062 428.78125 855.265625 427.332031 C 856.347656 425.164062 850.019531 421.90625 848.753906 421.367188 C 846.402344 420.640625 843.507812 421.183594 841.160156 420.824219 C 839.710938 420.640625 838.265625 420.460938 836.636719 420.640625 C 833.019531 421.003906 829.042969 421.726562 825.605469 423.355469 C 823.796875 424.257812 821.449219 424.800781 819.277344 424.800781 C 818.011719 424.800781 816.746094 424.257812 815.660156 423.898438 C 817.289062 421.726562 818.734375 419.917969 821.449219 419.195312 C 823.980469 418.472656 827.054688 418.652344 829.402344 417.566406 C 831.03125 416.84375 834.648438 413.769531 834.285156 411.960938 C 833.925781 410.152344 829.945312 408.164062 831.394531 405.996094 C 833.019531 403.644531 839.710938 404.546875 841.882812 404.546875 C 845.5 404.546875 848.03125 403.28125 851.648438 402.558594 C 852.550781 402.378906 856.53125 402.738281 857.070312 402.195312 C 857.796875 401.292969 855.265625 396.410156 854.902344 395.324219 C 853.273438 390.441406 851.464844 384.292969 847.125 381.21875 C 845.5 380.136719 843.691406 379.773438 842.0625 379.050781 C 839.53125 377.785156 838.445312 374.890625 836.09375 373.261719 C 835.550781 372.902344 835.191406 372.539062 834.648438 372.179688 C 832.296875 370.550781 830.128906 368.921875 827.597656 367.65625 C 825.789062 367.65625 824.339844 368.019531 822.714844 368.742188 C 820.90625 369.464844 818.734375 370.007812 816.925781 370.914062 C 814.9375 372.179688 815.117188 374.890625 813.128906 375.976562 C 811.140625 377.242188 808.246094 376.699219 806.257812 378.144531 C 805.171875 378.871094 804.269531 380.136719 803.363281 381.039062 C 802.097656 382.125 800.652344 382.847656 799.203125 383.570312 C 797.035156 384.835938 795.226562 385.921875 792.695312 386.285156 C 790.34375 386.644531 787.992188 387.007812 785.460938 387.1875 C 782.929688 387.367188 781.300781 388.089844 779.3125 389.539062 C 777.503906 390.804688 776.601562 391.527344 774.792969 390.082031 C 777.683594 388.632812 780.941406 386.824219 781.664062 386.464844 C 783.472656 385.378906 785.28125 384.476562 786.726562 382.847656 C 788.355469 381.039062 789.621094 379.410156 791.972656 378.507812 C 794.683594 377.421875 797.757812 376.519531 800.652344 375.792969 C 802.460938 375.433594 807.160156 375.070312 807.703125 372.71875 C 808.246094 370.914062 806.4375 370.914062 805.351562 370.371094 C 803.90625 369.464844 804.269531 368.199219 803.363281 366.570312 C 801.734375 363.496094 798.480469 361.148438 795.585938 359.882812 C 796.128906 358.796875 797.394531 354.273438 798.300781 353.914062 C 799.023438 353.734375 801.917969 355.722656 802.820312 356.082031 C 804.085938 356.808594 805.351562 357.710938 806.617188 356.445312 C 807.882812 355 806.617188 352.648438 807.523438 351.203125 C 808.066406 350.476562 809.152344 350.476562 810.054688 350.296875 C 811.683594 349.933594 814.9375 348.308594 814.394531 346.5 C 814.214844 345.777344 812.949219 344.511719 812.40625 343.96875 C 811.5 342.519531 810.597656 341.253906 809.511719 339.988281 C 808.246094 338.363281 807.34375 336.371094 805.535156 335.46875 C 803.542969 334.382812 801.554688 333.839844 799.566406 332.757812 C 795.769531 330.585938 791.429688 328.777344 787.089844 328.597656 C 785.28125 328.414062 784.195312 328.957031 782.929688 330.40625 C 782.207031 331.308594 782.386719 332.03125 781.84375 332.9375 C 781.121094 334.5625 778.769531 336.371094 777.503906 335.105469 C 776.058594 333.839844 775.875 331.308594 774.066406 330.042969 C 772.078125 330.40625 770.089844 331.128906 769.910156 333.117188 C 769.910156 333.839844 770.089844 334.5625 770.269531 335.289062 C 770.269531 335.289062 770.269531 335.105469 770.269531 335.105469 C 769.726562 333.660156 768.644531 332.574219 767.921875 331.308594 C 767.015625 329.683594 765.386719 328.054688 765.386719 326.066406 C 765.207031 322.992188 766.292969 319.734375 767.378906 316.84375 C 768.101562 314.851562 768.101562 312.863281 768.824219 310.875 C 769.367188 309.429688 770.453125 308.34375 769.910156 306.894531 C 769.367188 305.449219 767.558594 304.003906 766.835938 302.738281 C 765.75 300.746094 765.207031 299.300781 762.855469 299.300781 C 760.144531 299.300781 757.429688 300.386719 754.898438 300.566406 C 752.367188 300.75 751.28125 300.207031 749.113281 299.121094 C 747.304688 298.214844 738.261719 293.695312 736.816406 295.867188 C 736.273438 296.769531 738.261719 299.480469 738.804688 300.207031 C 740.070312 302.195312 741.878906 304.363281 744.050781 305.449219 C 745.675781 306.355469 747.667969 306.714844 749.113281 307.800781 C 750.015625 308.34375 752.007812 309.789062 752.367188 310.695312 C 753.273438 313.40625 749.835938 315.757812 751.28125 318.652344 C 752.007812 320.097656 752.730469 320.640625 753.089844 322.085938 C 753.453125 323.351562 753.632812 324.800781 753.816406 326.066406 C 754.355469 329.863281 753.996094 333.839844 753.453125 337.820312 C 752.007812 336.011719 750.558594 334.382812 749.113281 332.574219 C 748.207031 331.128906 747.484375 330.042969 747.667969 328.417969 C 747.847656 326.789062 748.570312 325.339844 747.847656 323.894531 C 747.125 322.449219 745.132812 321.726562 744.59375 319.917969 C 744.050781 318.46875 744.59375 316.480469 744.410156 314.851562 C 744.410156 312.863281 744.230469 311.960938 742.421875 311.238281 C 740.976562 310.695312 739.710938 310.152344 738.445312 309.429688 C 737.539062 308.703125 736.273438 307.980469 735.550781 307.078125 C 733.742188 305.269531 732.476562 304.003906 730.847656 302.554688 C 730.847656 301.652344 730.847656 300.75 730.667969 300.023438 C 730.125 298.035156 728.316406 297.3125 726.6875 296.226562 C 725.605469 295.503906 724.699219 294.238281 723.613281 293.515625 C 722.53125 292.609375 721.265625 292.429688 720.179688 291.886719 C 718.550781 291.164062 718.007812 289.898438 717.648438 288.269531 C 716.742188 283.027344 718.550781 276.878906 719.636719 271.632812 C 720.179688 268.921875 720 269.464844 718.191406 267.65625 C 716.199219 265.664062 715.660156 263.132812 712.945312 261.867188 C 709.511719 260.242188 707.160156 265.847656 704.085938 266.75 C 703 265.304688 700.105469 263.132812 698.117188 264.582031 C 696.851562 265.484375 696.128906 268.738281 695.765625 270.007812 C 695.042969 272.175781 693.414062 274.164062 694.5 276.335938 C 695.40625 278.144531 696.488281 279.230469 696.671875 281.21875 C 696.851562 283.027344 697.03125 284.835938 697.03125 286.644531 C 696.308594 286.28125 695.765625 285.738281 695.042969 285.378906 C 693.777344 284.472656 692.332031 283.75 690.882812 283.386719 C 690.160156 283.207031 689.4375 283.386719 688.894531 282.664062 C 687.808594 281.21875 688.171875 277.238281 687.992188 275.429688 C 687.628906 272.71875 687.085938 270.007812 686 267.472656 C 685.277344 265.847656 684.917969 263.675781 683.832031 262.230469 C 682.925781 261.144531 681.84375 261.144531 680.757812 260.601562 C 679.308594 260.058594 677.320312 259.878906 675.875 259.15625 C 674.609375 258.433594 673.703125 256.984375 672.980469 255.71875 C 671.535156 253.550781 670.085938 250.292969 667.375 249.390625 C 665.203125 248.667969 662.492188 249.753906 660.140625 249.753906 C 657.609375 249.570312 647.300781 246.136719 649.292969 251.5625 C 650.917969 256.082031 652.90625 260.785156 655.257812 264.941406 C 655.441406 265.304688 655.621094 265.847656 655.980469 266.390625 C 655.257812 265.847656 654.535156 265.304688 653.8125 264.761719 C 652.003906 263.496094 649.832031 263.316406 648.027344 262.230469 C 646.21875 261.144531 645.3125 259.515625 643.867188 258.070312 C 642.238281 256.625 640.25 255.902344 638.621094 254.453125 C 636.632812 252.828125 635.003906 250.835938 633.015625 249.027344 C 629.761719 246.136719 627.589844 242.519531 625.78125 238.722656 C 624.878906 236.730469 624.515625 235.105469 624.515625 233.117188 C 624.515625 231.847656 624.699219 230.402344 623.972656 229.316406 C 623.433594 228.414062 622.164062 227.507812 621.261719 226.96875 C 620.175781 226.242188 619.816406 225.519531 618.910156 224.253906 C 617.644531 222.265625 615.835938 220.277344 614.027344 219.011719 C 613.125 218.46875 612.039062 217.5625 610.953125 217.746094 C 609.867188 217.925781 609.507812 218.828125 608.601562 219.191406 C 607.519531 219.734375 605.167969 219.371094 604.082031 218.828125 C 603.179688 218.46875 602.636719 217.5625 602.09375 216.660156 C 601.730469 216.296875 601.550781 215.9375 601.1875 215.574219 C 601.1875 214.488281 601.1875 213.402344 601.1875 213.042969 C 601.550781 209.246094 601.730469 205.085938 598.839844 202.554688 C 596.667969 200.566406 594.136719 197.128906 591.242188 196.226562 C 590.882812 196.042969 589.976562 195.683594 589.074219 195.140625 C 587.808594 193.332031 586.722656 191.523438 585.273438 189.894531 C 582.382812 186.460938 579.125 185.554688 575.148438 184.46875 C 568.636719 182.480469 565.5625 176.875 560.5 172.898438 C 555.617188 169.097656 549.832031 166.75 544.769531 163.132812 C 540.96875 160.417969 537.535156 156.984375 533.375 154.632812 C 531.746094 153.726562 529.757812 153.367188 527.949219 153.003906 C 526.324219 152.644531 524.875 151.738281 523.25 151.558594 C 522.707031 151.378906 520.535156 151.195312 519.269531 151.015625 C 518.183594 149.386719 517.101562 147.398438 516.375 146.675781 C 514.75 144.867188 512.941406 144.503906 512.21875 141.972656 C 511.492188 139.261719 512.21875 137.453125 509.144531 136.550781 C 506.429688 135.824219 503.539062 135.644531 500.824219 134.558594 C 499.378906 134.015625 499.558594 134.015625 499.558594 132.75 C 499.558594 131.847656 499.738281 130.761719 499.921875 129.859375 C 497.929688 128.953125 496.121094 128.410156 494.316406 127.144531 C 492.6875 126.058594 490.878906 124.253906 489.070312 123.890625 C 487.441406 123.527344 485.816406 124.613281 484.367188 123.527344 C 483.285156 122.804688 482.742188 120.816406 481.113281 120.636719 C 480.027344 120.453125 478.402344 121.359375 477.316406 121.359375 C 476.410156 121.359375 475.6875 121.539062 474.785156 121.539062 C 474.785156 121.539062 474.785156 121.539062 474.785156 121.359375 C 474.421875 120.453125 473.699219 119.730469 473.335938 118.644531 C 474.601562 117.921875 476.050781 117.742188 477.496094 117.199219 C 479.125 116.476562 479.847656 116.113281 480.390625 114.667969 C 481.292969 111.957031 481.65625 108.882812 481.476562 105.988281 C 481.476562 104.539062 481.292969 102.550781 480.570312 101.285156 C 480.027344 99.839844 478.761719 99.660156 477.679688 98.933594 C 475.6875 97.488281 474.0625 95.679688 472.070312 94.234375 C 469.902344 92.605469 467.730469 93.871094 465.382812 93.328125 C 464.65625 93.328125 463.933594 93.511719 463.210938 93.511719 C 462.847656 90.796875 463.933594 87.722656 462.667969 85.371094 C 461.945312 84.105469 460.679688 83.203125 459.957031 81.753906 C 459.050781 79.945312 458.871094 77.777344 458.328125 75.789062 C 457.964844 73.980469 457.964844 71.808594 457.425781 70.183594 C 457.0625 68.734375 456.339844 68.917969 455.074219 68.375 C 452.179688 67.289062 449.828125 65.117188 447.476562 63.308594 C 444.765625 61.140625 442.414062 58.425781 440.0625 56.078125 C 438.253906 54.269531 436.628906 52.640625 435.363281 50.289062 C 434.277344 48.300781 432.648438 45.769531 430.480469 44.863281 C 428.492188 43.960938 426.320312 44.863281 424.332031 45.589844 C 421.980469 46.492188 419.808594 47.214844 417.460938 48.121094 C 415.832031 48.664062 412.757812 49.386719 411.671875 50.652344 C 410.585938 50.832031 409.320312 51.011719 408.238281 51.195312 C 407.332031 50.289062 406.429688 49.386719 406.066406 49.023438 C 404.4375 47.398438 403.171875 46.855469 400.824219 46.492188 C 396.480469 45.949219 392.140625 43.054688 387.984375 43.238281 C 384.183594 43.417969 380.207031 43.78125 376.410156 44.683594 C 372.792969 45.589844 368.089844 47.9375 364.65625 47.578125 C 362.125 47.398438 360.496094 45.769531 357.964844 46.128906 C 355.25 46.492188 352.902344 45.949219 350.1875 45.046875 C 347.65625 44.324219 344.582031 43.238281 341.871094 43.054688 C 339.519531 42.875 337.710938 43.238281 335.539062 42.332031 C 333.191406 41.429688 330.65625 39.800781 328.667969 38.175781 C 327.402344 37.089844 325.050781 35.640625 324.148438 34.558594 C 323.425781 34.195312 322.882812 33.832031 322.160156 33.652344 C 321.796875 31.484375 321.074219 29.3125 320.351562 27.503906 C 319.445312 25.152344 316.914062 24.609375 314.746094 23.707031 C 310.585938 22.078125 305.703125 19.367188 301.363281 19.1875 C 299.375 19.003906 297.746094 19.1875 295.757812 18.460938 C 293.949219 17.738281 292.140625 16.292969 290.332031 16.113281 C 287.980469 15.929688 288.160156 17.558594 286.714844 18.824219 C 285.8125 19.546875 284.726562 19.367188 283.640625 19.730469 C 282.554688 20.089844 282.195312 20.632812 281.289062 21.355469 C 279.480469 22.984375 278.757812 20.996094 276.589844 21.175781 C 275.320312 21.175781 273.515625 23.164062 274.054688 24.070312 C 274.78125 25.152344 275.503906 26.417969 276.226562 27.503906 C 276.046875 28.226562 275.863281 29.132812 275.683594 29.855469 C 276.769531 32.386719 276.40625 35.101562 275.320312 37.8125 C 273.515625 41.609375 277.128906 44.324219 279.300781 47.398438 C 280.386719 48.84375 281.652344 50.289062 281.46875 52.097656 C 281.46875 53.003906 280.929688 53.726562 281.109375 54.8125 C 281.289062 55.894531 282.195312 56.800781 282.738281 57.703125 C 285.628906 62.042969 284.90625 67.109375 287.257812 71.628906 C 288.523438 74.160156 289.96875 75.246094 292.320312 77.054688 C 293.226562 77.777344 296.839844 81.574219 299.011719 83.019531 C 299.554688 84.105469 300.277344 85.011719 300.820312 86.09375 C 301.90625 90.617188 305.882812 91.519531 309.863281 94.414062 C 315.105469 98.03125 317.457031 103.636719 321.433594 108.339844 C 325.777344 113.402344 329.03125 115.753906 335 118.644531 C 340.242188 121.179688 344.945312 125.699219 347.835938 130.582031 C 349.464844 133.292969 350.1875 136.367188 352.539062 138.175781 C 353.984375 139.082031 355.613281 139.441406 357.242188 139.804688 C 357.601562 140.347656 357.964844 140.890625 358.144531 141.070312 C 359.410156 142.695312 360.496094 144.6875 362.125 145.953125 C 364.472656 147.578125 367.910156 146.855469 370.441406 146.3125 C 375.867188 145.410156 381.835938 146.675781 385.992188 150.835938 C 386.898438 151.738281 387.621094 153.003906 388.164062 154.269531 C 388.527344 155.355469 388.707031 157.164062 389.429688 158.066406 C 390.515625 159.335938 393.046875 159.875 394.492188 161.140625 C 396.121094 162.589844 397.75 164.21875 398.832031 166.023438 C 400.28125 168.375 400.824219 170.90625 402.089844 173.257812 C 402.992188 175.246094 404.800781 178.503906 406.429688 179.949219 C 407.875 181.394531 409.863281 181.214844 411.492188 182.121094 C 413.300781 183.023438 413.300781 185.195312 413.84375 187.003906 C 414.566406 189.894531 415.652344 193.691406 417.460938 196.042969 C 419.628906 198.9375 423.066406 201.46875 425.597656 204 C 426.683594 205.085938 427.949219 206.53125 429.03125 207.253906 C 430.117188 207.980469 430.660156 207.980469 432.105469 207.980469 C 434.097656 207.980469 435.90625 208.339844 437.53125 209.0625 C 438.253906 212.136719 438.4375 215.03125 438.4375 218.285156 C 438.4375 221.179688 438.253906 224.253906 438.617188 227.148438 C 438.796875 229.859375 439.339844 232.753906 439.703125 235.464844 C 440.0625 238.539062 442.777344 241.613281 444.222656 244.328125 C 444.945312 245.59375 445.851562 247.945312 447.296875 248.488281 C 448.925781 249.027344 450.914062 248.304688 452.542969 248.125 C 456.699219 247.582031 460.859375 249.570312 464.476562 251.199219 C 467.371094 252.464844 470.804688 253.910156 473.335938 255.902344 C 475.6875 257.710938 477.679688 260.242188 479.847656 262.230469 C 481.292969 263.496094 482.378906 264.582031 484.367188 264.941406 C 486.359375 265.125 489.070312 264.582031 490.878906 265.847656 C 494.496094 268.199219 497.570312 272.539062 500.101562 275.792969 C 502.632812 279.230469 504.621094 281.035156 508.601562 283.027344 C 511.675781 284.472656 514.75 285.917969 517.640625 287.910156 C 518.546875 288.453125 519.269531 289.175781 520.175781 289.898438 C 520.175781 289.898438 520.355469 290.078125 520.355469 290.078125 C 519.8125 290.984375 519.269531 291.707031 518.726562 292.609375 C 518.546875 294.058594 517.101562 295.683594 515.835938 296.40625 C 514.566406 296.949219 513.121094 297.132812 512.761719 298.941406 C 512.578125 300.75 514.566406 303.460938 515.109375 304.90625 C 516.015625 307.078125 516.195312 308.886719 518.367188 310.511719 C 518.726562 310.695312 519.632812 311.417969 520.714844 312.140625 C 520.175781 315.214844 519.992188 317.746094 521.441406 320.640625 C 522.707031 323.351562 524.332031 325.882812 525.417969 328.777344 C 526.863281 332.214844 528.3125 335.648438 528.855469 339.445312 C 529.214844 341.980469 528.3125 346.5 529.757812 348.488281 C 530.664062 349.574219 532.289062 350.296875 533.195312 351.382812 C 534.28125 352.648438 534.820312 354.277344 535.183594 355.902344 C 535.90625 358.976562 536.269531 362.230469 537.171875 365.125 C 538.257812 368.742188 540.066406 371.816406 540.246094 375.613281 C 540.429688 378.507812 540.609375 382.125 541.332031 384.835938 C 542.054688 387.007812 546.214844 389.359375 548.566406 388.816406 C 550.375 388.273438 552 386.824219 553.628906 385.921875 C 554.351562 386.824219 554.894531 387.910156 555.257812 388.453125 C 556.339844 390.984375 558.332031 393.515625 561.042969 394.242188 C 564.117188 394.964844 568.636719 395.144531 571.351562 397.132812 C 572.796875 398.21875 573.339844 399.847656 574.425781 401.292969 C 575.691406 403.28125 577.679688 405.089844 579.488281 406.71875 C 582.382812 409.25 584.007812 410.515625 584.371094 414.132812 C 584.550781 416.300781 584.734375 416.664062 586.722656 417.929688 C 587.082031 418.292969 587.445312 418.472656 587.988281 418.835938 C 587.808594 422.449219 587.808594 426.609375 590.339844 428.597656 C 593.414062 430.949219 596.667969 433.121094 599.5625 435.832031 C 602.453125 438.363281 604.261719 441.257812 606.613281 444.152344 C 609.144531 447.226562 610.953125 450.84375 613.667969 453.917969 C 615.65625 456.265625 618.1875 458.617188 620.71875 460.789062 C 623.25 466.03125 625.238281 471.636719 625.601562 477.605469 C 625.78125 479.59375 625.601562 481.945312 625.78125 483.933594 C 625.964844 486.285156 627.773438 488.457031 629.039062 490.265625 C 630.664062 492.613281 631.570312 493.15625 634.101562 494.242188 C 636.269531 495.148438 637.898438 496.050781 638.261719 498.402344 C 638.800781 501.65625 638.261719 505.09375 640.25 507.804688 C 642.960938 511.785156 645.492188 516.304688 647.664062 520.464844 C 649.472656 524.082031 650.738281 527.878906 653.449219 530.773438 C 654.171875 531.496094 656.34375 534.207031 658.332031 536.558594 C 658.332031 536.921875 658.332031 537.460938 658.515625 537.824219 C 658.515625 539.632812 658.875 541.621094 658.875 543.429688 C 658.695312 546.503906 656.523438 548.132812 655.257812 550.484375 C 653.992188 553.015625 656.707031 555.726562 657.972656 557.898438 C 659.417969 560.609375 661.589844 562.78125 663.578125 565.128906 C 666.652344 568.566406 669.003906 572.542969 671.894531 576.34375 L 672.078125 576.160156 C 673.523438 579.054688 675.332031 581.949219 677.5 584.480469 C 681.300781 588.820312 687.808594 589.722656 691.605469 594.246094 C 694.679688 597.863281 695.222656 603.648438 696.851562 607.808594 C 698.117188 611.0625 701.734375 612.328125 703.902344 615.042969 C 706.074219 617.574219 707.160156 620.828125 708.785156 623.722656 C 710.234375 626.074219 711.679688 629.6875 713.667969 631.679688 C 716.382812 634.210938 720.359375 636.5625 723.613281 638.371094 C 727.953125 640.902344 731.753906 643.976562 735.371094 647.410156 C 739.167969 650.847656 743.507812 655.007812 748.027344 657.175781 C 750.199219 658.261719 752.1875 659.347656 752.910156 661.699219 C 753.632812 664.046875 754.175781 666.578125 755.441406 668.570312 C 755.621094 668.75 755.804688 669.113281 756.164062 669.292969 C 755.441406 670.195312 754.71875 671.460938 754.539062 671.644531 C 753.273438 673.453125 756.890625 675.984375 758.15625 677.066406 C 759.238281 677.972656 760.503906 678.695312 761.769531 679.238281 C 763.578125 679.960938 764.484375 681.046875 765.929688 682.132812 C 769.1875 684.664062 772.441406 687.375 775.695312 689.726562 C 777.503906 690.992188 779.675781 691.898438 781.664062 692.980469 C 784.558594 694.609375 786.363281 696.960938 788.714844 699.3125 C 792.695312 703.289062 795.769531 708.171875 799.929688 711.789062 C 801.917969 713.417969 803.542969 713.777344 806.074219 714.320312 C 809.691406 715.40625 813.492188 718.300781 816.203125 721.011719 C 820.90625 725.714844 824.882812 730.597656 831.03125 733.671875 C 834.46875 735.476562 838.085938 736.925781 841.519531 738.734375 C 844.414062 740.359375 846.582031 742.710938 849.296875 744.699219 C 852.371094 747.050781 855.625 748.316406 859.0625 749.945312 C 861.230469 751.03125 863.402344 752.117188 865.210938 753.742188 C 867.199219 755.371094 867.378906 755.550781 867.558594 757.902344 C 867.558594 758.804688 867.558594 759.890625 867.921875 760.976562 C 868.464844 762.605469 869.730469 762.964844 870.996094 764.050781 C 873.167969 766.21875 874.976562 768.570312 877.324219 770.5625 C 877.6875 770.921875 879.132812 772.1875 880.039062 772.910156 C 881.125 774.539062 882.390625 776.167969 884.015625 777.433594 C 886.546875 779.242188 889.078125 780.507812 890.886719 783.039062 C 892.152344 784.847656 892.515625 787.015625 893.058594 789.1875 C 893.238281 789.910156 892.878906 789.730469 893.421875 790.273438 C 893.960938 790.8125 895.589844 791.175781 896.3125 791.539062 C 897.941406 792.261719 899.570312 792.984375 901.195312 793.886719 C 904.269531 795.515625 905.535156 799.3125 907.523438 802.027344 C 908.25 802.929688 908.972656 803.835938 909.515625 804.738281 C 910.058594 805.644531 910.058594 807.449219 910.597656 808.175781 C 912.046875 809.984375 918.917969 808.71875 920.726562 807.8125 C 921.628906 807.449219 921.449219 807.992188 921.628906 807.089844 C 921.8125 806.183594 921.089844 804.558594 920.546875 803.835938 C 919.640625 802.027344 918.375 800.761719 917.472656 799.132812 C 916.566406 797.324219 916.929688 796.058594 916.746094 794.070312 C 916.386719 791.71875 914.035156 790.273438 912.40625 788.644531 C 910.960938 787.015625 908.609375 784.484375 908.609375 782.316406 C 908.609375 780.867188 909.152344 779.242188 909.332031 777.613281 C 910.417969 778.15625 911.683594 778.699219 912.046875 778.699219 C 913.855469 779.785156 916.207031 780.144531 918.195312 780.867188 C 920.546875 781.773438 922.894531 783.398438 924.886719 784.847656 C 926.695312 786.113281 927.597656 787.921875 929.042969 789.367188 C 930.492188 790.8125 933.203125 790.996094 935.191406 791.898438 C 937.90625 793.164062 940.257812 794.613281 942.789062 796.058594 C 945.320312 797.503906 947.851562 798.046875 950.746094 798.410156 C 951.648438 798.589844 952.554688 799.3125 953.097656 798.410156 C 953.457031 797.6875 952.914062 795.515625 952.914062 794.792969 C 952.734375 792.261719 955.628906 791.175781 954 788.824219 C 953.277344 787.921875 950.925781 786.292969 951.46875 784.847656 C 952.011719 783.761719 954.179688 783.941406 955.085938 783.21875 C 956.171875 782.316406 956.53125 780.144531 956.894531 778.878906 C 957.074219 778.15625 957.796875 776.710938 958.519531 775.261719 C 959.785156 776.527344 960.871094 777.613281 962.136719 779.058594 C 962.679688 779.601562 963.222656 780.144531 963.765625 780.6875 C 965.210938 781.773438 966.117188 781.953125 966.660156 783.582031 C 967.019531 784.847656 967.199219 786.292969 968.285156 787.199219 C 969.371094 788.464844 971.179688 789.1875 972.445312 790.273438 C 974.074219 791.898438 974.433594 792.261719 976.421875 790.996094 C 977.691406 792.441406 977.507812 794.25 977.691406 796.058594 C 977.691406 796.601562 977.691406 798.046875 978.050781 798.589844 C 978.414062 799.3125 980.039062 800.035156 980.765625 800.398438 C 982.933594 801.664062 985.285156 802.386719 987.636719 803.472656 C 989.082031 804.195312 989.082031 804.558594 990.347656 802.929688 C 991.433594 801.484375 991.792969 799.496094 992.15625 797.867188 C 994.144531 790.453125 991.976562 782.859375 992.878906 775.261719 C 993.421875 770.921875 993.601562 766.761719 994.328125 762.421875 C 994.6875 760.613281 995.773438 759.167969 995.953125 757.359375 C 996.136719 755.007812 995.410156 752.476562 994.867188 750.125 C 993.785156 744.703125 997.761719 742.167969 999.027344 737.46875 C 999.933594 734.394531 998.847656 731.136719 997.761719 727.882812 C 997.941406 727.523438 998.304688 727.160156 998.304688 726.796875 C 999.210938 724.808594 999.933594 722.277344 1000.292969 720.109375 C 1001.015625 716.851562 999.570312 714.140625 998.304688 711.246094 C 996.675781 707.449219 995.230469 703.652344 993.964844 699.671875 C 992.878906 695.695312 994.144531 691.355469 995.050781 687.558594 C 995.953125 683.941406 996.859375 680.144531 998.125 676.527344 C 999.027344 674.175781 999.933594 672.003906 1000.476562 669.472656 C 1000.65625 668.207031 1001.742188 666.21875 1001.378906 664.953125 C 1001.015625 663.324219 998.304688 661.15625 997.21875 660.070312 C 995.410156 658.082031 994.507812 657.71875 995.230469 655.007812 C 996.859375 648.859375 998.125 642.710938 999.390625 636.378906 C 1001.199219 635.113281 1003.1875 633.847656 1004.816406 632.402344 C 1006.441406 631.136719 1007.890625 629.507812 1009.15625 627.882812 C 1010.058594 626.613281 1009.878906 625.890625 1009.699219 624.265625 C 1008.792969 619.382812 1008.613281 614.316406 1007.167969 609.617188 Z M 1007.167969 609.617188 " fill-opacity="1" fill-rule="nonzero"/></g><g clip-path="url(#6d432ddb32)"><path fill="#9b0e0e" d="M 317.949219 212.628906 C 317.949219 212.628906 290.5 187.375 290.5 176.550781 C 290.5 160.21875 302.800781 146.957031 317.949219 146.957031 C 333.097656 146.957031 345.394531 160.21875 345.394531 176.550781 C 345.394531 187.375 317.949219 212.628906 317.949219 212.628906 Z M 317.949219 212.628906 " fill-opacity="1" fill-rule="evenodd"/></g><path fill="#ffffff" d="M 310.183594 172.425781 C 308.042969 172.671875 306.105469 171.132812 305.855469 168.992188 C 305.609375 166.851562 307.148438 164.914062 309.289062 164.667969 C 309.8125 164.605469 312.027344 164.179688 314.824219 161.117188 C 315.914062 159.921875 317.632812 159.523438 319.140625 160.117188 C 320.648438 160.714844 321.628906 162.175781 321.609375 163.796875 C 321.503906 172.804688 321.203125 190.035156 321.777344 192.898438 C 322.199219 195.011719 320.828125 197.070312 318.714844 197.492188 C 316.601562 197.917969 314.539062 196.542969 314.117188 194.429688 C 313.65625 192.113281 313.648438 180.90625 313.722656 171.507812 C 311.933594 172.265625 310.652344 172.371094 310.183594 172.425781 Z M 310.183594 172.425781 " fill-opacity="1" fill-rule="evenodd"/><g clip-path="url(#5ce05dbef7)"><path fill="#9b0e0e" d="M 423.113281 310.035156 C 423.113281 310.035156 395.667969 284.78125 395.667969 273.960938 C 395.667969 257.625 407.964844 244.363281 423.113281 244.363281 C 438.261719 244.363281 450.5625 257.625 450.5625 273.960938 C 450.5625 284.78125 423.113281 310.035156 423.113281 310.035156 Z M 423.113281 310.035156 " fill-opacity="1" fill-rule="evenodd"/></g><path fill="#ffffff" d="M 425.496094 270.300781 C 425.4375 270.109375 424.902344 268.355469 424.234375 267.367188 C 423.921875 266.902344 423.558594 266.464844 423.144531 266.117188 C 422.871094 265.890625 422.597656 265.652344 422.246094 265.671875 C 421.816406 265.691406 421.410156 265.996094 420.921875 266.425781 C 420.261719 267.007812 419.59375 267.816406 418.898438 268.871094 C 417.710938 270.671875 415.289062 271.167969 413.488281 269.980469 C 411.691406 268.792969 411.191406 266.371094 412.378906 264.570312 C 415.683594 259.5625 419.101562 258.011719 421.851562 257.871094 C 424.832031 257.71875 427.527344 259.191406 429.554688 261.5 C 432.167969 264.476562 433.4375 268.785156 433.292969 270.773438 C 433.039062 274.238281 431.097656 277.796875 428.359375 280.964844 C 427.691406 281.738281 426.980469 282.488281 426.246094 283.210938 C 432.019531 283.109375 432.507812 282.777344 434.199219 283.050781 C 436.328125 283.394531 437.773438 285.402344 437.429688 287.53125 C 437.082031 289.65625 435.074219 291.105469 432.949219 290.757812 C 430.6875 290.390625 430.707031 291.285156 415.527344 290.957031 C 413.875 290.921875 412.425781 289.851562 411.90625 288.285156 C 411.386719 286.71875 411.90625 284.992188 413.207031 283.976562 C 415.316406 282.332031 419.417969 279.367188 422.449219 275.859375 C 423.980469 274.089844 425.316406 272.234375 425.496094 270.300781 Z M 425.496094 270.300781 " fill-opacity="1" fill-rule="evenodd"/><g clip-path="url(#eac9141e3e)"><path fill="#9b0e0e" d="M 576.433594 550.34375 C 576.433594 550.34375 548.988281 525.09375 548.988281 514.269531 C 548.988281 497.9375 561.285156 484.675781 576.433594 484.675781 C 591.582031 484.675781 603.878906 497.9375 603.878906 514.269531 C 603.878906 525.09375 576.433594 550.34375 576.433594 550.34375 Z M 576.433594 550.34375 " fill-opacity="1" fill-rule="evenodd"/></g><path fill="#ffffff" d="M 586.683594 512.007812 C 587.136719 512.332031 587.5625 512.695312 587.960938 513.105469 C 589.78125 514.988281 591.128906 517.84375 590.691406 522.332031 C 590.339844 525.949219 588.039062 528.597656 584.707031 530.171875 C 580.855469 531.988281 575.546875 532.21875 572.175781 531.378906 C 571.03125 531.089844 570.066406 530.679688 569.332031 530.21875 L 568.199219 529.324219 L 567.484375 528.449219 L 566.898438 527.242188 L 566.644531 525.8125 L 566.804688 524.394531 L 567.28125 523.183594 C 568.296875 521.28125 570.667969 520.566406 572.566406 521.582031 C 573.503906 522.082031 574.152344 522.914062 574.449219 523.851562 C 574.765625 523.921875 575.109375 523.988281 575.402344 524.011719 C 577.078125 524.15625 579.089844 523.984375 580.78125 523.355469 C 581.777344 522.984375 582.820312 522.59375 582.917969 521.574219 C 583.058594 520.132812 582.933594 519.140625 582.347656 518.539062 C 581.632812 517.796875 580.539062 517.679688 579.628906 517.609375 C 578.289062 517.503906 577.144531 517.6875 576.859375 517.730469 C 574.816406 518.050781 572.875 516.71875 572.441406 514.695312 C 572.003906 512.671875 573.222656 510.660156 575.214844 510.109375 C 575.566406 510.011719 577.4375 509.511719 579.0625 508.496094 C 579.433594 508.265625 579.792969 508.007812 580.09375 507.707031 C 580.289062 507.515625 580.539062 507.320312 580.453125 507.011719 C 580.121094 505.828125 578.921875 505.535156 577.792969 505.476562 C 576.121094 505.386719 574.285156 505.859375 573.292969 506.855469 C 571.769531 508.382812 569.296875 508.386719 567.769531 506.867188 C 566.242188 505.34375 566.238281 502.871094 567.757812 501.34375 C 570.09375 499 574.273438 497.46875 578.203125 497.675781 C 582.675781 497.914062 586.652344 500.210938 587.96875 504.894531 C 588.753906 507.679688 588.125 510.0625 586.683594 512.007812 Z M 586.683594 512.007812 " fill-opacity="1" fill-rule="evenodd"/></svg>