<svg xmlns="http://www.w3.org/2000/svg" xmlns:xlink="http://www.w3.org/1999/xlink" width="1920" zoomAndPan="magnify" viewBox="0 0 1440 809.999993" height="1080" preserveAspectRatio="xMidYMid meet" version="1.0"><defs><clipPath id="ab1147d328"><path d="M 253.8125 0 L 1186.0625 0 L 1186.0625 809 L 253.8125 809 Z M 253.8125 0 " clip-rule="nonzero"/></clipPath><clipPath id="8893630482"><path d="M 1131.292969 249.417969 L 1186.042969 249.417969 L 1186.042969 315.417969 L 1131.292969 315.417969 Z M 1131.292969 249.417969 " clip-rule="nonzero"/></clipPath></defs><g clip-path="url(#ab1147d328)"><path fill="#1e293b" d="M 879.355469 40.351562 L 910.613281 6.082031 L 929.140625 8.476562 L 951.210938 0.320312 L 973.976562 6.386719 L 1023.363281 6.59375 L 1031.875 15.652344 C 1040.808594 12.183594 1046.78125 13.21875 1049.789062 18.753906 C 1049.027344 23.5 1050.722656 27.75 1054.878906 31.503906 L 1051.03125 45.953125 L 1065.277344 61.179688 L 1041.707031 67.734375 L 1040.167969 76.695312 L 989.226562 76.394531 L 985.472656 89.625 L 994.34375 92.125 L 1008.4375 85.28125 C 1016.320312 87.695312 1021.90625 90.335938 1025.191406 93.203125 L 1026.910156 99.914062 L 1046.308594 103.289062 L 1035.207031 108.796875 C 1033.28125 120.074219 1035.613281 127.039062 1042.207031 129.699219 L 1038.742188 156.941406 C 1051.21875 155.253906 1064.902344 158.46875 1079.792969 166.582031 L 1105.210938 206.632812 L 1104.695312 214.6875 L 1077.945312 211.65625 L 1069.667969 221.335938 L 1132.679688 281.1875 L 1136.980469 295.035156 L 1169.738281 312.488281 L 1186.167969 336.738281 L 1176.214844 351.386719 L 1137.523438 354.148438 L 1098.242188 331.253906 L 1091.738281 338.863281 L 1096.949219 349.644531 L 1081.980469 353.101562 L 1044.207031 414.507812 L 1036.007812 451.636719 C 1037.988281 460.632812 1043.5 467.207031 1052.550781 471.363281 C 1046.109375 486.125 1045.171875 494.402344 1049.742188 496.191406 L 1044.386719 502.238281 L 1029.675781 487.515625 L 1023.179688 490.125 L 1019.859375 509.753906 L 987.316406 540.570312 L 971.058594 531.773438 L 964.796875 535.109375 L 971.265625 551.785156 L 952.699219 560.105469 L 947.558594 574.90625 L 928.621094 581.445312 L 917.207031 595.375 L 935.8125 595.964844 L 936.734375 612.402344 C 933.367188 619.429688 931.640625 626.007812 931.550781 632.132812 L 951.398438 634.171875 L 952.429688 639.816406 C 951.992188 643.921875 948.480469 649.722656 941.898438 657.210938 L 928.976562 655.195312 L 921.464844 663.089844 C 920.769531 667.78125 923.089844 670.761719 928.425781 672.039062 C 929.386719 679.375 926.867188 687.921875 920.867188 697.671875 C 912.636719 692.949219 907.125 692.167969 904.328125 695.324219 L 901.820312 704.796875 C 905.816406 707.039062 909.070312 716.636719 911.574219 733.585938 C 911.191406 742.617188 907.457031 749.761719 900.371094 755.011719 C 824.320312 791.472656 784.382812 809.179688 780.5625 808.132812 C 777.550781 803.78125 776.046875 787.992188 776.042969 760.773438 L 769.015625 737.707031 L 755.8125 738.15625 L 751.320312 728.332031 L 736.800781 730.867188 L 728.875 719.277344 L 716.203125 729.015625 L 692.0625 731.042969 L 683.90625 708.050781 L 662.441406 713.214844 L 646.070312 704.042969 L 638 687.03125 L 621.847656 694.476562 L 621.074219 706.449219 L 588.117188 725.804688 L 556.496094 714.234375 C 544.429688 720.246094 534.546875 727.054688 526.851562 734.660156 L 513.171875 729.957031 C 519.09375 711.371094 517.925781 691.460938 509.664062 670.222656 L 494.746094 681.550781 L 476.253906 674.480469 L 427.417969 686.050781 L 419.953125 681.367188 L 406.125 684.738281 L 401.03125 668.6875 L 364.96875 676 L 366.15625 647.582031 L 358.617188 639.117188 L 363.71875 619.308594 L 356.609375 579.503906 L 342.269531 560.925781 L 355.417969 527.53125 C 350.164062 511.535156 345.496094 500.917969 341.417969 495.675781 L 327.988281 489.523438 L 327.324219 498.082031 L 315.183594 508.160156 L 299.515625 508.585938 L 302.15625 487.152344 L 315.457031 484.503906 L 314.398438 474.828125 L 300.148438 471.820312 L 287.503906 479.117188 L 285.484375 462.957031 L 300.3125 460.894531 L 291.765625 446.214844 L 272.882812 441.152344 L 271.585938 421.132812 C 280.175781 412.980469 282.609375 405.425781 278.886719 398.46875 L 290.269531 395.238281 L 258.585938 364.480469 L 253.765625 313.210938 L 265.734375 302.089844 L 257.09375 281.515625 L 272.433594 247.628906 L 290.785156 234.949219 L 302.226562 207.898438 L 316.683594 199.648438 L 315.445312 222.078125 L 324.949219 248.097656 C 358.511719 270.710938 384.515625 294.460938 402.960938 319.335938 C 409.332031 312.917969 414.609375 309.296875 418.789062 308.476562 L 436.152344 312.695312 C 439.214844 311.25 442.527344 306.535156 446.082031 298.546875 L 494.023438 301.488281 L 521.78125 310.1875 L 553.816406 298.335938 L 566.539062 265.96875 L 595.695312 251.164062 L 643.429688 251.53125 L 636.292969 273.015625 C 641.589844 274.421875 654.277344 279.753906 674.359375 289.011719 L 679.175781 275.757812 L 696.5625 288.613281 C 701.382812 283.316406 722.050781 274.125 758.566406 261.046875 C 764.945312 273.007812 770.679688 278.078125 775.765625 276.25 C 778.054688 275.164062 780.417969 272.65625 782.859375 268.726562 L 800.371094 236.535156 C 802.847656 233.019531 805.707031 232.84375 808.945312 236.015625 L 804.046875 206.621094 C 826.222656 190.679688 838.453125 179.929688 840.738281 174.378906 C 843.042969 168.90625 838.972656 164.5 828.523438 161.160156 C 831.925781 147.199219 834.960938 138.3125 837.628906 134.503906 C 842.507812 126.308594 851.820312 124.667969 865.578125 129.582031 L 879.992188 101.757812 C 883.320312 94.171875 884.941406 88.257812 884.863281 84.015625 C 884.710938 79.574219 882.988281 75.183594 879.699219 70.84375 L 879.355469 40.351562 " fill-opacity="1" fill-rule="nonzero"/></g><g clip-path="url(#8893630482)"><path fill="#9b0e0e" d="M 1158.738281 315.054688 C 1158.738281 315.054688 1131.308594 289.816406 1131.308594 278.996094 C 1131.308594 262.671875 1143.597656 249.417969 1158.738281 249.417969 C 1173.878906 249.417969 1186.171875 262.671875 1186.171875 278.996094 C 1186.171875 289.816406 1158.738281 315.054688 1158.738281 315.054688 Z M 1158.738281 315.054688 " fill-opacity="1" fill-rule="evenodd"/></g><path fill="#ffffff" d="M 1150.980469 274.875 C 1148.839844 275.121094 1146.902344 273.582031 1146.65625 271.441406 C 1146.410156 269.304688 1147.945312 267.367188 1150.085938 267.121094 C 1150.609375 267.058594 1152.824219 266.632812 1155.617188 263.574219 C 1156.707031 262.375 1158.425781 261.980469 1159.933594 262.574219 C 1161.4375 263.167969 1162.421875 264.632812 1162.402344 266.25 C 1162.292969 275.253906 1161.992188 292.472656 1162.566406 295.335938 C 1162.988281 297.449219 1161.617188 299.507812 1159.503906 299.929688 C 1157.390625 300.351562 1155.335938 298.980469 1154.914062 296.867188 C 1154.449219 294.550781 1154.445312 283.347656 1154.515625 273.957031 C 1152.730469 274.714844 1151.449219 274.820312 1150.980469 274.875 Z M 1150.980469 274.875 " fill-opacity="1" fill-rule="evenodd"/></svg>