<svg xmlns="http://www.w3.org/2000/svg" xmlns:xlink="http://www.w3.org/1999/xlink" width="1920" zoomAndPan="magnify" viewBox="0 0 1440 809.999993" height="1080" preserveAspectRatio="xMidYMid meet" version="1.0"><defs><clipPath id="a82fff0111"><path d="M 821.183594 600.800781 L 875.933594 600.800781 L 875.933594 666 L 821.183594 666 Z M 821.183594 600.800781 " clip-rule="nonzero"/></clipPath></defs><path fill="#1e293b" d="M 1087.054688 652.703125 C 1093.195312 647.898438 1097.199219 642.289062 1101.742188 636.683594 C 1105.210938 636.683594 1107.082031 637.75 1108.949219 639.351562 C 1109.21875 640.421875 1109.484375 641.488281 1109.75 642.558594 C 1113.222656 642.824219 1115.894531 643.890625 1116.160156 648.433594 C 1116.695312 653.503906 1115.09375 656.441406 1110.285156 658.3125 C 1107.617188 659.378906 1105.480469 659.914062 1103.34375 661.785156 C 1101.742188 663.121094 1100.40625 665.523438 1098.535156 666.589844 C 1095.597656 668.191406 1090.523438 667.125 1087.054688 667.660156 C 1082.78125 668.191406 1079.042969 668.726562 1074.769531 668.726562 C 1073.96875 665.253906 1074.503906 662.050781 1077.171875 659.914062 C 1079.84375 656.976562 1083.847656 655.109375 1087.054688 652.703125 Z M 1087.054688 652.703125 " fill-opacity="1" fill-rule="nonzero"/><path fill="#1e293b" d="M 1102.007812 671.933594 C 1102.808594 671.398438 1103.609375 670.863281 1104.144531 670.597656 C 1107.882812 668.460938 1107.347656 670.328125 1110.019531 673.535156 C 1107.347656 678.609375 1102.007812 677.273438 1098 679.941406 C 1094.261719 682.613281 1094.796875 689.558594 1091.324219 692.226562 C 1088.921875 694.097656 1083.046875 689.289062 1081.710938 686.886719 C 1076.90625 678.609375 1088.386719 675.671875 1094.261719 674.066406 C 1095.597656 673.535156 1099.070312 672.464844 1102.007812 671.933594 Z M 1102.007812 671.933594 " fill-opacity="1" fill-rule="nonzero"/><path fill="#1e293b" d="M 1123.105469 660.714844 C 1122.835938 655.640625 1122.835938 650.300781 1125.507812 647.628906 C 1129.511719 643.359375 1139.125 645.496094 1143.933594 647.097656 C 1148.472656 648.699219 1152.746094 651.371094 1157.554688 651.371094 C 1162.09375 651.371094 1166.898438 649.765625 1171.171875 648.699219 C 1181.585938 646.5625 1193.070312 645.226562 1203.484375 645.226562 C 1213.367188 644.960938 1216.035156 652.972656 1221.910156 659.648438 C 1225.917969 664.453125 1230.1875 667.390625 1232.859375 673.265625 C 1234.730469 677.539062 1234.460938 681.277344 1234.996094 685.816406 C 1235.53125 690.089844 1236.0625 695.433594 1237.132812 699.703125 C 1238.734375 705.3125 1243.273438 708.785156 1247.28125 712.789062 C 1251.550781 717.328125 1256.09375 721.335938 1260.632812 725.339844 C 1263.035156 727.476562 1265.972656 730.683594 1267.042969 733.886719 C 1268.910156 738.691406 1269.710938 748.308594 1266.238281 752.3125 C 1262.5 756.585938 1255.824219 754.714844 1251.285156 757.121094 C 1245.675781 760.058594 1247.8125 772.609375 1247.011719 778.214844 C 1245.675781 787.828125 1240.871094 792.902344 1233.925781 798.246094 C 1229.121094 801.984375 1225.917969 801.714844 1221.109375 798.511719 C 1218.4375 796.910156 1216.835938 795.304688 1213.898438 794.503906 C 1211.230469 793.972656 1206.6875 795.304688 1204.554688 794.238281 C 1200.011719 792.636719 1199.210938 785.425781 1195.207031 782.488281 C 1191.46875 779.816406 1186.125 782.222656 1181.585938 780.886719 C 1173.042969 778.484375 1166.097656 776.613281 1160.492188 769.402344 C 1156.75 764.597656 1156.75 760.859375 1150.074219 759.523438 C 1143.398438 758.1875 1136.722656 758.453125 1129.78125 758.1875 C 1127.375 748.574219 1121.234375 748.574219 1113.222656 745.902344 C 1107.882812 744.035156 1110.554688 738.425781 1105.746094 734.152344 C 1106.8125 731.214844 1106.011719 728.011719 1104.144531 725.074219 C 1102.007812 721.871094 1099.070312 721.601562 1096.398438 718.933594 C 1092.660156 715.191406 1091.058594 706.648438 1094.261719 702.640625 C 1097.46875 697.835938 1099.070312 691.691406 1103.34375 687.6875 C 1105.480469 685.550781 1108.683594 683.683594 1111.085938 681.8125 C 1113.222656 680.476562 1117.230469 678.609375 1118.832031 677.003906 C 1119.632812 675.9375 1119.898438 671.933594 1119.898438 670.328125 C 1121.234375 666.589844 1122.035156 663.921875 1123.105469 660.714844 Z M 1123.105469 660.714844 " fill-opacity="1" fill-rule="nonzero"/><path fill="#1e293b" d="M 790.898438 801.984375 C 791.167969 801.984375 791.433594 801.984375 791.433594 801.984375 C 791.433594 801.984375 791.167969 801.984375 790.898438 801.984375 Z M 113.40625 122.351562 C 110.738281 120.75 108.066406 119.148438 105.394531 117.546875 C 100.054688 114.609375 97.917969 110.871094 97.386719 103.660156 C 96.582031 95.648438 97.917969 88.972656 93.113281 82.03125 C 88.304688 74.820312 83.765625 70.8125 84.566406 61.46875 C 85.367188 54.257812 85.367188 42.773438 93.378906 39.835938 C 97.652344 38.5 103.261719 38.234375 107.53125 39.300781 C 112.605469 40.371094 115.8125 43.84375 120.082031 46.78125 C 123.019531 45.976562 124.625 43.574219 127.027344 41.972656 C 130.230469 40.101562 133.167969 41.4375 136.640625 42.507812 C 143.050781 44.375 151.863281 44.910156 157.46875 48.382812 C 160.941406 50.785156 163.34375 56.394531 165.75 59.597656 C 168.6875 63.605469 172.15625 67.34375 175.09375 71.347656 C 179.632812 77.222656 185.507812 82.832031 184.441406 90.574219 C 183.90625 94.582031 181.238281 98.585938 181.503906 102.859375 C 181.503906 105.261719 182.304688 108.46875 183.105469 111.40625 C 184.976562 108.734375 186.578125 106.0625 188.445312 103.125 C 191.652344 102.324219 197.527344 93.511719 200.195312 90.84375 C 205.003906 85.769531 210.613281 83.097656 217.019531 80.160156 C 223.695312 76.957031 227.167969 71.082031 233.042969 67.074219 C 239.1875 63.070312 248.800781 66.542969 253.339844 71.613281 C 255.742188 74.285156 256.8125 78.292969 259.480469 80.695312 C 262.417969 83.363281 262.6875 82.03125 265.890625 80.425781 C 273.632812 76.6875 279.507812 82.832031 286.71875 85.5 C 294.730469 88.707031 303.542969 91.109375 312.089844 90.574219 C 321.703125 90.039062 329.179688 97.785156 338.527344 95.113281 C 345.203125 93.246094 347.339844 94.046875 353.746094 97.25 C 361.492188 100.988281 370.304688 104.726562 378.316406 107.664062 C 385.257812 110.070312 392.46875 110.070312 397.808594 115.410156 C 400.214844 117.8125 403.417969 122.085938 405.554688 126.09375 C 408.757812 125.824219 413.300781 125.023438 414.902344 124.757812 C 420.242188 125.023438 425.582031 125.023438 430.65625 126.09375 C 436.800781 127.160156 442.40625 130.097656 448.816406 131.164062 C 454.957031 132.234375 461.632812 131.164062 466.976562 134.636719 C 472.582031 138.109375 477.65625 142.113281 482.996094 145.320312 C 497.417969 154.132812 513.171875 149.859375 529.195312 149.058594 C 538.007812 148.523438 547.355469 149.59375 553.765625 143.449219 C 556.96875 140.246094 560.976562 136.238281 565.246094 134.90625 C 569.789062 133.300781 575.664062 134.371094 580.46875 134.101562 C 594.355469 133.300781 607.707031 135.707031 621.859375 134.371094 C 629.605469 133.570312 637.082031 134.636719 644.828125 134.371094 C 645.09375 134.371094 645.628906 134.371094 645.894531 134.371094 C 647.496094 132.769531 649.097656 131.164062 649.367188 130.898438 C 658.445312 121.550781 669.394531 117.28125 680.878906 110.871094 C 687.820312 106.863281 695.03125 102.859375 701.171875 97.785156 C 707.316406 92.710938 712.921875 85.769531 718.53125 79.894531 C 724.941406 73.484375 731.882812 67.875 737.492188 60.664062 C 742.566406 54.257812 747.90625 47.046875 754.847656 42.238281 C 757.785156 40.105469 761.523438 40.371094 764.996094 38.769531 C 767.667969 37.433594 769.804688 34.761719 772.472656 32.894531 C 779.417969 28.621094 788.230469 27.820312 794.90625 22.746094 C 806.390625 14.199219 818.140625 6.988281 832.558594 7.792969 C 838.703125 8.058594 844.042969 10.195312 849.117188 13.933594 C 849.117188 13.933594 849.117188 13.933594 849.382812 14.199219 C 851.785156 14.734375 853.65625 15.269531 854.191406 15.269531 C 866.472656 17.671875 875.820312 28.085938 887.835938 30.757812 C 895.582031 32.625 904.660156 29.6875 912.671875 31.292969 C 922.019531 32.894531 929.496094 38.5 937.773438 43.039062 C 946.855469 47.847656 956.734375 53.1875 966.882812 55.59375 C 970.886719 56.660156 974.359375 55.859375 978.367188 56.394531 C 983.171875 57.195312 987.179688 59.597656 991.71875 61.199219 C 996.523438 62.800781 999.730469 64.136719 1003.46875 67.875 C 1008.007812 72.414062 1012.8125 78.558594 1018.6875 80.960938 C 1026.433594 83.898438 1035.246094 82.5625 1042.992188 85.234375 C 1049.132812 87.371094 1055.808594 90.84375 1061.417969 94.3125 C 1065.957031 97.25 1069.960938 101.257812 1074.5 103.925781 C 1077.4375 105.796875 1080.109375 105.53125 1083.582031 106.332031 C 1093.730469 108.734375 1103.074219 114.074219 1110.285156 121.550781 C 1118.5625 129.832031 1127.910156 135.972656 1138.058594 141.3125 C 1144.46875 144.785156 1146.070312 150.925781 1148.472656 156.800781 C 1152.480469 158.40625 1156.21875 160.273438 1160.222656 161.875 C 1163.160156 162.945312 1166.898438 163.746094 1169.570312 165.613281 C 1172.238281 167.484375 1174.375 170.152344 1177.582031 171.757812 C 1181.585938 173.894531 1185.859375 175.761719 1190.132812 177.632812 C 1197.074219 181.101562 1204.550781 184.039062 1211.496094 187.511719 C 1221.375 192.585938 1228.050781 206.207031 1233.925781 215.285156 C 1242.738281 228.636719 1249.949219 241.722656 1256.894531 256.144531 C 1262.234375 267.089844 1269.980469 273.5 1277.457031 282.847656 C 1281.730469 288.1875 1285.199219 295.664062 1290.273438 300.203125 C 1293.746094 303.410156 1297.21875 302.875 1301.488281 303.945312 C 1318.3125 308.484375 1331.664062 322.636719 1345.019531 332.785156 C 1348.488281 335.453125 1353.03125 338.390625 1355.96875 341.597656 C 1358.90625 344.800781 1358.101562 349.609375 1357.300781 353.613281 C 1355.699219 360.824219 1353.03125 368.300781 1349.289062 374.976562 C 1347.15625 380.585938 1345.019531 385.925781 1344.21875 387.261719 C 1336.207031 400.078125 1318.582031 405.421875 1306.5625 413.164062 C 1298.019531 418.773438 1289.207031 424.382812 1281.460938 431.058594 C 1273.984375 437.734375 1269.976562 446.011719 1266.238281 455.089844 C 1263.570312 461.234375 1262.234375 472.984375 1256.625 477.253906 C 1252.351562 480.460938 1243.539062 482.597656 1238.199219 483.933594 C 1229.65625 486.066406 1221.910156 479.125 1213.363281 480.191406 C 1209.09375 480.726562 1206.421875 482.328125 1201.882812 480.996094 C 1197.609375 479.660156 1193.871094 477.789062 1189.597656 477.253906 C 1183.722656 476.1875 1172.773438 475.121094 1167.167969 477.253906 C 1161.292969 479.390625 1157.820312 490.339844 1156.21875 495.683594 C 1154.613281 501.023438 1156.484375 511.972656 1151.410156 514.910156 C 1147.136719 517.578125 1138.859375 514.375 1135.386719 516.511719 C 1134.050781 516.511719 1132.71875 516.246094 1131.382812 516.246094 C 1131.113281 516.511719 1130.847656 517.046875 1130.582031 517.3125 C 1127.109375 521.316406 1120.96875 523.453125 1116.160156 525.324219 C 1108.949219 527.996094 1101.472656 531.199219 1096.132812 536.539062 C 1093.195312 539.210938 1091.59375 542.148438 1087.585938 542.949219 C 1084.382812 543.484375 1080.109375 543.214844 1076.90625 543.214844 C 1073.96875 542.949219 1070.230469 542.414062 1067.558594 542.949219 C 1064.355469 543.75 1063.554688 546.152344 1060.882812 547.753906 C 1056.34375 550.425781 1049.667969 548.023438 1044.59375 547.222656 C 1043.257812 546.953125 1041.386719 546.6875 1039.25 546.421875 C 1036.847656 547.488281 1034.445312 548.289062 1032.308594 549.089844 C 1021.894531 553.097656 1009.34375 558.972656 1000.796875 566.183594 C 997.058594 569.386719 995.457031 576.597656 990.382812 577.128906 C 982.90625 577.929688 979.96875 575.261719 974.359375 581.9375 C 968.75 588.347656 963.945312 594.753906 957.003906 600.363281 C 952.730469 603.835938 948.191406 607.039062 943.917969 610.242188 C 940.445312 612.914062 934.570312 614.515625 931.898438 617.722656 C 924.421875 626.265625 931.898438 642.554688 923.621094 649.234375 C 912.40625 658.3125 900.921875 666.589844 890.773438 677.003906 C 886.769531 681.011719 882.496094 685.816406 877.421875 688.488281 C 873.148438 690.625 871.546875 689.554688 867.273438 688.222656 C 861.667969 686.351562 851.519531 685.015625 849.382812 691.691406 C 848.046875 695.429688 848.046875 699.4375 847.78125 703.441406 C 847.246094 707.179688 845.378906 714.125 847.246094 717.328125 C 848.847656 720 852.320312 721.066406 853.921875 724.003906 C 855.523438 726.675781 856.058594 728.8125 858.460938 730.949219 C 861.667969 733.617188 867.273438 736.289062 869.679688 737.890625 C 871.28125 739.226562 872.882812 740.292969 874.753906 741.363281 C 875.554688 738.691406 876.355469 736.023438 876.886719 733.351562 C 877.15625 729.078125 875.820312 724.804688 873.949219 720.535156 C 871.28125 714.65625 869.144531 709.851562 877.15625 707.449219 C 890.773438 703.441406 888.371094 724.539062 891.84375 732.015625 C 894.511719 737.355469 901.191406 740.5625 902.792969 746.703125 C 903.59375 749.640625 902.792969 753.378906 902.792969 756.316406 C 902.792969 759.253906 903.859375 762.460938 903.59375 765.398438 C 902.792969 774.742188 887.570312 778.480469 881.695312 784.355469 C 875.554688 789.964844 870.480469 796.90625 861.398438 798.777344 C 854.992188 800.113281 848.316406 800.378906 842.171875 803.585938 C 837.898438 805.71875 836.03125 808.65625 830.957031 809.191406 C 821.074219 809.992188 812.53125 805.1875 803.449219 802.78125 C 802.917969 803.050781 802.382812 803.316406 801.847656 803.582031 C 798.910156 804.917969 795.707031 804.652344 792.769531 804.917969 C 771.140625 807.589844 747.105469 805.71875 728.679688 792.636719 C 730.816406 786.761719 730.546875 776.878906 736.957031 775.542969 C 740.695312 774.742188 744.96875 775.542969 748.707031 775.542969 C 753.246094 775.542969 757.785156 774.742188 762.058594 774.476562 C 769.269531 773.675781 774.609375 773.40625 777.546875 766.464844 C 780.21875 760.324219 781.554688 752.578125 786.359375 747.503906 C 790.097656 743.5 797.574219 739.761719 802.382812 737.355469 C 807.992188 734.6875 816.003906 732.28125 818.40625 725.875 C 820.542969 720.53125 816.269531 714.65625 817.871094 709.851562 C 818.671875 707.179688 821.609375 706.113281 822.144531 703.441406 C 822.679688 700.773438 821.074219 698.367188 820.273438 696.230469 C 818.136719 690.089844 820.273438 683.679688 822.410156 677.539062 C 821.074219 671.128906 821.878906 663.917969 818.671875 658.3125 C 814.132812 651.101562 805.054688 648.164062 801.582031 639.617188 C 799.179688 633.742188 797.84375 626.800781 793.570312 621.992188 C 789.296875 617.1875 782.355469 612.648438 776.480469 609.441406 C 771.941406 606.773438 766.597656 605.972656 762.324219 603.035156 C 756.183594 598.761719 752.445312 591.015625 747.90625 585.410156 C 742.832031 579.265625 738.023438 573.125 732.683594 566.980469 C 729.210938 562.976562 726.273438 557.902344 722.269531 554.164062 C 719.332031 551.492188 715.058594 548.824219 711.585938 546.953125 C 707.046875 544.816406 701.441406 545.085938 696.898438 542.949219 C 689.421875 539.476562 685.417969 534.136719 681.945312 527.191406 C 680.609375 524.523438 679.808594 520.515625 677.671875 518.113281 C 675.804688 516.242188 672.332031 515.175781 669.660156 513.839844 C 664.585938 511.703125 659.78125 509.566406 656.042969 505.292969 C 651.769531 500.222656 648.566406 493.011719 645.359375 486.335938 C 644.023438 485.800781 642.957031 485.265625 641.621094 485 C 635.210938 483.128906 632.542969 482.328125 628.003906 477.523438 C 619.992188 469.511719 610.910156 462.566406 602.097656 455.359375 C 593.019531 447.878906 583.40625 443.074219 573.257812 436.929688 C 566.316406 432.925781 560.441406 428.652344 552.429688 426.785156 C 545.484375 425.179688 538.808594 424.914062 532.933594 420.640625 C 520.917969 412.628906 510.503906 402.214844 495.546875 401.414062 C 490.472656 401.148438 485.402344 401.949219 480.328125 401.148438 C 475.785156 400.347656 474.71875 398.210938 472.046875 394.472656 C 467.507812 388.0625 462.167969 382.722656 457.628906 376.578125 C 454.691406 372.839844 452.019531 370.4375 447.214844 368.566406 C 437.332031 364.828125 425.316406 365.363281 415.167969 366.964844 C 411.964844 367.5 407.15625 368.300781 403.953125 367.234375 C 401.015625 366.164062 397.808594 363.492188 394.871094 361.890625 C 388.730469 358.152344 381.789062 357.617188 374.578125 358.421875 C 368.703125 358.953125 362.828125 359.222656 356.683594 359.222656 C 354.28125 360.023438 351.609375 360.824219 348.941406 361.625 C 341.730469 363.492188 334.519531 365.097656 327.578125 367.234375 C 321.167969 369.101562 315.027344 367.234375 308.617188 366.699219 C 302.207031 366.164062 295.796875 368.035156 289.390625 368.300781 C 287.789062 368.300781 282.179688 368.835938 281.109375 367.5 C 280.042969 365.898438 282.980469 360.824219 283.515625 360.023438 C 283.515625 357.886719 283.78125 355.75 283.78125 353.613281 C 282.179688 354.148438 280.84375 354.949219 279.242188 355.484375 C 275.234375 357.085938 270.695312 357.351562 267.226562 360.289062 C 263.753906 363.226562 262.683594 366.699219 257.878906 368.035156 C 254.40625 369.101562 250.132812 369.101562 247.464844 366.699219 C 245.058594 364.296875 243.726562 360.289062 241.589844 357.886719 C 238.117188 353.878906 233.84375 350.675781 230.371094 346.9375 C 223.429688 339.726562 217.554688 333.851562 212.480469 325.039062 C 207.140625 315.425781 200.464844 306.347656 191.917969 299.402344 C 188.179688 296.464844 185.507812 295.398438 184.707031 290.589844 C 183.90625 286.316406 183.90625 281.777344 183.105469 277.503906 C 181.503906 270.296875 178.832031 264.152344 171.621094 262.816406 C 164.679688 261.484375 163.34375 258.8125 159.871094 252.671875 C 156.402344 246.527344 151.863281 242.253906 147.589844 237.183594 C 143.316406 232.109375 141.179688 223.296875 139.308594 216.085938 C 136.371094 215.015625 133.433594 213.683594 131.566406 212.882812 C 126.492188 210.476562 124.089844 207.007812 121.417969 202.464844 C 118.480469 197.660156 116.078125 192.851562 112.605469 188.3125 C 109.667969 184.039062 105.128906 181.636719 101.925781 177.632812 C 96.851562 170.953125 100.320312 161.875 97.652344 154.398438 C 94.980469 146.652344 90.707031 140.511719 88.839844 132.5 C 87.503906 127.160156 81.09375 114.875 90.441406 112.472656 C 94.445312 114.875 97.917969 119.414062 100.589844 123.421875 C 103.792969 127.960938 105.128906 131.164062 109.9375 126.890625 C 109.136719 126.894531 111.269531 124.488281 113.40625 122.351562 Z M 113.40625 122.351562 " fill-opacity="1" fill-rule="nonzero"/><g clip-path="url(#a82fff0111)"><path fill="#9b0e0e" d="M 848.390625 665.875 C 848.390625 665.875 821.195312 640.851562 821.195312 630.125 C 821.195312 613.941406 833.378906 600.800781 848.390625 600.800781 C 863.402344 600.800781 875.589844 613.941406 875.589844 630.125 C 875.589844 640.851562 848.390625 665.875 848.390625 665.875 Z M 848.390625 665.875 " fill-opacity="1" fill-rule="evenodd"/></g><path fill="#ffffff" d="M 840.699219 626.039062 C 838.578125 626.28125 836.65625 624.757812 836.410156 622.636719 C 836.167969 620.515625 837.691406 618.59375 839.8125 618.351562 C 840.332031 618.289062 842.523438 617.867188 845.296875 614.832031 C 846.378906 613.648438 848.082031 613.253906 849.574219 613.84375 C 851.066406 614.433594 852.042969 615.882812 852.023438 617.488281 C 851.914062 626.414062 851.617188 643.488281 852.183594 646.324219 C 852.605469 648.417969 851.242188 650.460938 849.148438 650.878906 C 847.054688 651.296875 845.015625 649.9375 844.597656 647.84375 C 844.136719 645.546875 844.132812 634.441406 844.207031 625.128906 C 842.433594 625.878906 841.164062 625.984375 840.699219 626.039062 Z M 840.699219 626.039062 " fill-opacity="1" fill-rule="evenodd"/></svg>