<?xml version="1.0" standalone="no"?>
<!DOCTYPE svg PUBLIC "-//W3C//DTD SVG 20010904//EN"
 "http://www.w3.org/TR/2001/REC-SVG-20010904/DTD/svg10.dtd">
<svg version="1.0" xmlns="http://www.w3.org/2000/svg"
 width="900.000000pt" height="909.000000pt" viewBox="0 0 900.000000 909.000000"
 preserveAspectRatio="xMidYMid meet">

<g transform="translate(0.000000,909.000000) scale(0.100000,-0.100000)"
fill="#000000" stroke="none">
<path d="M4339 8945 c-2 0 -76 -950 -74 -953 5 -6 238 -23 243 -18 8 9 32 299
39 479 3 86 8 155 11 153 2 -3 19 -38 36 -78 31 -70 339 -576 358 -589 11 -7
238 -23 243 -17 4 3 75 894 75 930 0 22 -14 25 -141 33 l-105 7 -17 -229 c-10
-125 -17 -267 -17 -315 0 -49 -4 -88 -8 -88 -5 0 -19 28 -33 63 -13 34 -101
185 -193 335 l-169 272 -41 1 c-23 0 -78 4 -123 7 -46 4 -83 7 -84 7z"/>
<path d="M3375 8776 l-150 -41 -32 -440 c-36 -507 -39 -570 -29 -569 35 5 224
59 234 67 8 6 12 38 12 93 l0 83 43 11 c23 6 100 27 170 46 70 19 133 34 140
34 7 0 31 -34 54 -74 l43 -75 122 33 c68 18 123 35 123 38 0 14 -561 837 -570
836 -5 0 -77 -19 -160 -42z m69 -181 c3 -8 53 -92 112 -186 58 -93 104 -173
100 -176 -7 -7 -207 -63 -226 -63 -13 0 -14 26 -8 202 4 112 5 211 2 221 -6
21 12 23 20 2z"/>
<path d="M6042 8151 c-122 -230 -222 -421 -222 -424 0 -6 211 -119 215 -115 1
2 35 65 74 141 l73 138 64 -36 c95 -54 187 -85 247 -85 148 0 284 150 295 327
7 115 -32 194 -133 263 -37 25 -377 210 -386 210 -3 0 -104 -188 -227 -419z
m391 98 c67 -34 107 -77 107 -116 0 -72 -59 -131 -117 -117 -40 9 -144 56
-141 63 21 45 101 191 104 191 3 0 24 -9 47 -21z"/>
<path d="M2464 8415 c-238 -52 -375 -250 -304 -439 25 -66 84 -136 134 -160
46 -22 143 -20 244 4 119 29 157 27 193 -9 54 -54 26 -136 -58 -173 -38 -17
-59 -19 -122 -15 -42 3 -86 9 -98 12 -23 7 -23 7 -23 -103 0 -66 4 -113 10
-117 6 -4 43 -9 83 -12 128 -10 256 37 354 129 130 123 147 286 47 435 -54 78
-102 107 -188 111 -44 2 -97 -3 -141 -13 -123 -30 -147 -33 -177 -23 -56 20
-64 80 -18 126 40 40 118 66 182 60 48 -5 49 -5 44 21 -3 14 -8 53 -11 86 -10
93 -11 95 -53 94 -20 0 -64 -7 -98 -14z"/>
<path d="M6830 7689 c-172 -199 -308 -365 -303 -369 34 -34 429 -370 434 -370
4 0 38 34 75 75 l67 76 -23 24 c-13 14 -67 62 -122 107 -54 45 -98 87 -98 93
0 5 22 35 49 65 l48 55 88 -75 c48 -41 102 -87 120 -102 l32 -27 49 57 c97
111 101 87 -31 199 -63 54 -115 102 -115 106 0 11 93 117 103 117 4 0 62 -47
129 -105 96 -84 124 -103 133 -93 65 73 127 149 124 151 -2 2 -102 87 -221
190 -119 103 -219 187 -222 187 -2 0 -145 -162 -316 -361z"/>
<path d="M1400 7615 l-115 -115 228 -456 228 -457 31 29 c16 16 57 59 90 96
l60 68 -41 71 c-23 39 -41 73 -41 76 0 11 246 263 258 263 7 0 44 -17 82 -37
l69 -38 93 92 92 92 -99 47 c-55 26 -261 123 -458 215 -197 93 -359 169 -360
169 -1 0 -54 -52 -117 -115z m384 -256 l139 -71 -91 -91 c-50 -50 -93 -89 -95
-87 -2 3 -42 75 -89 160 -47 85 -96 172 -108 193 l-23 38 64 -36 c35 -20 127
-68 203 -106z"/>
<path d="M7522 7066 c-216 -139 -395 -256 -398 -259 -4 -3 24 -53 61 -111 l67
-105 36 23 c194 122 425 275 460 303 46 37 52 36 23 -5 -10 -15 -30 -49 -43
-77 -24 -47 -238 -596 -238 -608 0 -11 129 -207 136 -207 4 0 186 115 406 256
251 162 396 260 391 268 -46 81 -128 196 -137 193 -21 -8 -450 -288 -490 -320
l-39 -31 28 49 c16 28 32 55 36 61 5 5 60 146 124 312 l115 302 -67 105 c-37
58 -69 105 -72 104 -3 0 -183 -114 -399 -253z"/>
<path d="M881 6992 l-72 -127 17 -30 c10 -16 53 -83 96 -148 43 -65 78 -119
78 -120 0 -1 -42 1 -92 5 -51 3 -131 6 -178 7 l-85 1 -71 -128 c-40 -70 -71
-128 -70 -129 2 -2 115 4 252 12 396 23 340 33 558 -91 103 -58 189 -104 190
-103 2 2 29 51 61 107 38 69 54 107 47 114 -5 5 -90 56 -188 112 l-179 101
-140 267 c-77 146 -142 269 -146 272 -3 3 -38 -52 -78 -122z"/>
<path d="M3294 6312 c-64 -22 -147 -76 -168 -107 -32 -49 -19 -70 99 -155 337
-244 540 -605 610 -1085 l16 -111 -80 -81 c-137 -141 -242 -322 -295 -508 -29
-101 -56 -265 -56 -341 0 -28 -3 -53 -6 -56 -3 -3 -26 6 -52 21 -43 24 -56 26
-158 26 -107 0 -113 -1 -180 -35 -121 -62 -179 -169 -178 -330 0 -66 5 -96 23
-135 61 -137 213 -215 394 -201 68 5 112 18 215 63 8 3 12 -6 12 -30 0 -50 25
-174 47 -232 15 -39 17 -60 10 -95 -10 -59 -3 -128 16 -147 22 -22 74 -2 123
48 65 68 86 79 175 90 65 8 213 48 274 75 7 3 9 -20 7 -67 -14 -244 123 -432
317 -432 118 0 224 46 308 136 67 70 87 126 81 221 -9 135 -84 240 -226 314
l-72 38 97 66 c190 129 324 275 402 439 56 115 81 221 88 363 l6 119 146 -6
c382 -16 676 -122 989 -360 145 -110 189 -134 208 -115 35 35 36 184 1 284
-65 182 -266 432 -441 548 -198 131 -521 185 -806 135 -30 -6 -62 -12 -72 -15
-12 -4 -18 4 -23 28 -3 18 -18 74 -31 124 l-25 91 88 89 c99 99 160 182 203
278 15 35 40 72 55 82 15 11 41 31 58 45 l31 26 -11 59 c-6 33 -30 102 -53
154 -23 52 -54 138 -70 190 -50 173 -71 194 -175 165 -33 -9 -91 -34 -130 -55
-38 -21 -126 -55 -195 -75 -144 -43 -179 -59 -182 -83 -1 -9 -2 -60 -3 -112
-1 -82 -5 -106 -33 -175 -18 -44 -42 -129 -53 -190 -12 -60 -23 -120 -25 -132
-4 -22 -9 -23 -92 -23 -49 0 -126 -9 -176 -20 -50 -11 -91 -20 -93 -20 -2 0
-3 73 -3 161 0 579 -218 945 -625 1049 -100 26 -240 26 -311 2z"/>
<path d="M8366 6030 c-104 -121 -196 -226 -205 -234 -10 -9 -102 -41 -207 -71
-104 -31 -196 -58 -205 -61 -15 -4 -13 -18 18 -122 19 -64 36 -118 38 -120 1
-2 96 24 211 57 l208 60 294 -85 c161 -47 295 -84 297 -82 2 1 -16 66 -39 143
l-41 140 -169 32 c-93 18 -170 34 -171 35 -1 2 54 55 121 118 67 63 123 121
123 128 1 14 -67 250 -78 269 -3 7 -83 -78 -195 -207z"/>
<path d="M796 5884 c-242 -19 -442 -36 -444 -38 -9 -10 -83 -300 -78 -311 4
-12 805 -552 826 -557 8 -2 25 44 45 119 l32 123 -77 45 -77 45 34 128 c18 70
39 150 46 177 l13 50 85 3 c46 2 87 6 92 11 6 6 67 222 67 237 0 9 -147 0
-564 -32z m124 -228 c0 -11 -60 -229 -64 -233 -3 -3 -78 40 -168 95 -90 55
-176 106 -193 114 -27 12 -21 13 80 19 141 7 345 10 345 5z"/>
<path d="M8161 5059 c-190 -32 -281 -171 -281 -429 0 -84 20 -193 44 -239 44
-85 123 -140 231 -161 34 -7 200 -14 383 -17 l322 -6 0 132 0 131 -232 0
c-285 1 -416 11 -460 37 -65 37 -87 136 -48 221 34 76 44 77 423 74 l327 -3 0
129 0 129 -227 6 c-280 9 -412 7 -482 -4z"/>
<path d="M146 4883 c8 -195 -1 -177 117 -232 56 -26 128 -58 159 -71 l57 -23
-142 -84 c-78 -46 -147 -87 -153 -91 -8 -5 -9 -47 -3 -151 4 -79 10 -145 11
-147 2 -1 115 78 251 175 l248 178 97 7 c53 3 152 9 220 12 l123 7 -7 121 c-4
66 -8 123 -10 125 -2 3 -100 -1 -217 -7 l-212 -11 -240 136 c-132 75 -254 145
-272 156 l-32 19 5 -119z"/>
<path d="M807 3756 c-76 -28 -112 -82 -105 -158 14 -145 194 -193 282 -75 16
21 21 43 21 87 0 44 -5 66 -21 87 -43 57 -115 81 -177 59z"/>
<path d="M8005 3724 c-93 -47 -108 -176 -29 -251 95 -89 257 -19 257 112 0
115 -126 192 -228 139z"/>
<path d="M7524 2930 c-44 -79 -79 -145 -78 -148 3 -14 668 -751 674 -747 10 6
120 206 120 218 0 5 -26 36 -59 70 l-59 62 85 150 c46 83 88 154 92 158 5 5
47 0 92 -10 l84 -19 62 110 c54 96 60 112 45 118 -9 4 -224 44 -477 88 -253
45 -470 84 -481 87 -19 4 -32 -14 -100 -137z m396 -141 c101 -22 185 -41 187
-42 4 -5 -118 -217 -125 -217 -4 0 -76 72 -160 160 -129 135 -147 157 -120
149 18 -5 116 -28 218 -50z"/>
<path d="M1010 2855 c-234 -107 -425 -198 -425 -203 0 -7 94 -220 102 -231 2
-3 862 385 871 394 7 6 -102 235 -112 235 -6 0 -202 -88 -436 -195z"/>
<path d="M1334 2304 c-181 -157 -342 -298 -358 -314 l-29 -28 78 -91 c44 -50
83 -91 87 -91 12 0 303 254 401 349 42 42 77 73 77 70 0 -4 -11 -32 -25 -63
-28 -63 -169 -672 -160 -694 6 -16 147 -180 156 -181 10 -2 720 621 717 629
-6 16 -149 180 -157 180 -10 0 -330 -276 -414 -359 l-69 -66 17 40 c9 22 23
58 31 80 15 44 144 608 144 632 0 14 -149 193 -161 193 -3 0 -154 -129 -335
-286z"/>
<path d="M7095 2285 c-49 -54 -84 -100 -79 -104 368 -336 696 -631 702 -631
11 0 172 176 172 188 0 9 -683 634 -699 640 -4 1 -48 -40 -96 -93z"/>
<path d="M6745 1912 c-116 -40 -221 -126 -265 -217 -17 -35 -26 -72 -28 -123
-4 -66 -1 -79 27 -137 37 -75 106 -140 165 -156 59 -16 128 -3 236 43 133 57
146 60 187 43 39 -17 64 -65 56 -109 -8 -40 -63 -91 -119 -110 -26 -9 -78 -16
-116 -16 -37 0 -68 -2 -68 -4 0 -6 30 -168 36 -195 5 -23 7 -24 77 -18 137 10
262 79 343 189 110 150 94 323 -42 447 -76 70 -139 89 -223 67 -32 -8 -99 -33
-149 -56 -107 -48 -142 -51 -171 -14 -26 34 -26 58 0 100 23 38 101 80 167 90
34 5 43 11 39 23 -2 9 -15 51 -28 93 -27 89 -33 91 -124 60z"/>
<path d="M2231 1339 c-145 -229 -250 -404 -245 -408 23 -22 291 -185 362 -220
100 -51 164 -65 268 -58 113 7 191 46 279 138 114 121 170 278 147 415 -26
158 -108 252 -367 422 -93 62 -174 112 -180 112 -5 -1 -124 -181 -264 -401z
m438 36 c81 -60 114 -110 119 -185 4 -48 -1 -69 -22 -116 -57 -123 -132 -184
-228 -184 -56 0 -143 31 -196 69 l-31 21 140 220 c78 121 144 220 149 220 4 0
35 -20 69 -45z"/>
<path d="M5890 1364 c-140 -63 -256 -117 -258 -119 -3 -3 374 -863 384 -873 2
-4 525 226 533 234 2 2 -15 47 -39 99 -36 79 -46 94 -62 90 -10 -4 -77 -33
-150 -66 -72 -32 -132 -59 -134 -59 -3 0 -50 102 -58 127 -5 17 12 28 126 78
73 32 137 61 141 65 7 6 -55 164 -72 183 -4 4 -67 -20 -141 -53 -73 -33 -137
-60 -141 -60 -8 0 -69 124 -69 140 0 4 66 37 148 74 90 40 146 71 144 78 -11
42 -77 178 -86 177 -6 0 -126 -52 -266 -115z"/>
<path d="M3625 1180 c-268 -57 -445 -304 -405 -562 43 -279 315 -476 592 -430
109 18 222 77 291 152 295 319 80 827 -358 846 -44 2 -98 -1 -120 -6z m227
-246 c83 -42 127 -121 128 -231 0 -132 -81 -255 -191 -287 -65 -20 -73 -20
-138 0 -101 30 -181 137 -181 243 0 68 36 164 81 215 85 97 188 117 301 60z"/>
<path d="M5222 1175 c-46 -7 -86 -15 -88 -18 -7 -7 63 -492 80 -556 7 -28 10
-51 6 -51 -4 0 -23 24 -43 53 -19 28 -133 152 -254 275 l-218 223 -117 -17
c-94 -14 -118 -21 -118 -33 -1 -32 123 -896 130 -904 3 -4 59 0 123 10 109 15
116 18 112 37 -3 12 -18 120 -35 241 -17 121 -38 249 -46 284 -8 35 -13 66
-11 67 2 2 21 -22 43 -53 21 -32 138 -157 259 -280 l220 -222 112 17 c61 9
114 20 117 23 3 3 -23 210 -59 459 -36 250 -65 455 -65 457 0 6 -66 1 -148
-12z"/>
</g>
</svg>
